<svg version="1.1" xmlns="http://www.w3.org/2000/svg" xmlns:xlink="http://www.w3.org/1999/xlink" width="60.33949" height="85.5192" viewBox="0,0,60.33949,85.5192"><defs><linearGradient x1="196.74581" y1="189.62708" x2="196.74581" y2="196.15653" gradientUnits="userSpaceOnUse" id="color-1"><stop offset="0" stop-color="#6e6e6e"/><stop offset="1" stop-color="#000000"/></linearGradient><linearGradient x1="189.24581" y1="179.12712" x2="189.24581" y2="189.71536" gradientUnits="userSpaceOnUse" id="color-2"><stop offset="0" stop-color="#6e6e6e"/><stop offset="1" stop-color="#000000"/></linearGradient><linearGradient x1="213.96554" y1="168.64729" x2="213.96554" y2="215.55829" gradientUnits="userSpaceOnUse" id="color-3"><stop offset="0" stop-color="#363636"/><stop offset="1" stop-color="#5d5d5d"/></linearGradient><linearGradient x1="224.90729" y1="199.14235" x2="224.90729" y2="215.87921" gradientUnits="userSpaceOnUse" id="color-4"><stop offset="0" stop-color="#505050"/><stop offset="1" stop-color="#5c5c5c"/></linearGradient><linearGradient x1="226.00534" y1="201.94401" x2="226.00534" y2="206.37884" gradientUnits="userSpaceOnUse" id="color-5"><stop offset="0" stop-color="#6e6e6e"/><stop offset="1" stop-color="#000000"/></linearGradient><linearGradient x1="229.23712" y1="211.61604" x2="229.23712" y2="219.82657" gradientUnits="userSpaceOnUse" id="color-6"><stop offset="0" stop-color="#595959"/><stop offset="1" stop-color="#5c5c5c"/></linearGradient><linearGradient x1="222.91759" y1="181.86176" x2="222.91759" y2="209.67932" gradientUnits="userSpaceOnUse" id="color-7"><stop offset="0" stop-color="#414141"/><stop offset="1" stop-color="#585858"/></linearGradient><linearGradient x1="223.25306" y1="209.16492" x2="223.25306" y2="215.53334" gradientUnits="userSpaceOnUse" id="color-8"><stop offset="0" stop-color="#575757"/><stop offset="1" stop-color="#ffffff"/></linearGradient><linearGradient x1="220.94718" y1="212.05966" x2="220.94718" y2="217.16492" gradientUnits="userSpaceOnUse" id="color-9"><stop offset="0" stop-color="#989898"/><stop offset="1" stop-color="#e3e3e3"/></linearGradient><linearGradient x1="222.48797" y1="212.50878" x2="222.48797" y2="217.58597" gradientUnits="userSpaceOnUse" id="color-10"><stop offset="0" stop-color="#989898"/><stop offset="1" stop-color="#e3e3e3"/></linearGradient><linearGradient x1="224.16584" y1="212.7544" x2="224.16584" y2="218.11229" gradientUnits="userSpaceOnUse" id="color-11"><stop offset="0" stop-color="#989898"/><stop offset="1" stop-color="#e3e3e3"/></linearGradient><linearGradient x1="225.91173" y1="212.5193" x2="225.91173" y2="218.21755" gradientUnits="userSpaceOnUse" id="color-12"><stop offset="0" stop-color="#989898"/><stop offset="1" stop-color="#e3e3e3"/></linearGradient><linearGradient x1="215.08835" y1="211.39213" x2="215.08835" y2="215.77363" gradientUnits="userSpaceOnUse" id="color-13"><stop offset="0" stop-color="#595959"/><stop offset="1" stop-color="#5b5b5b"/></linearGradient><linearGradient x1="212.90179" y1="211.39214" x2="212.90179" y2="215.77364" gradientUnits="userSpaceOnUse" id="color-14"><stop offset="0" stop-color="#595959"/><stop offset="1" stop-color="#5b5b5b"/></linearGradient><linearGradient x1="215.55593" y1="203.39002" x2="215.55593" y2="210.65157" gradientUnits="userSpaceOnUse" id="color-15"><stop offset="0" stop-color="#535353"/><stop offset="1" stop-color="#595959"/></linearGradient><linearGradient x1="228.76201" y1="167.79776" x2="234.47033" y2="167.79776" gradientUnits="userSpaceOnUse" id="color-16"><stop offset="0" stop-color="#000000"/><stop offset="1" stop-color="#6e6e6e"/></linearGradient><linearGradient x1="232.55369" y1="154.08942" x2="235.01201" y2="154.08942" gradientUnits="userSpaceOnUse" id="color-17"><stop offset="0" stop-color="#000000"/><stop offset="1" stop-color="#6e6e6e"/></linearGradient><linearGradient x1="228.94002" y1="148.93324" x2="235.44002" y2="148.93324" gradientUnits="userSpaceOnUse" id="color-18"><stop offset="0" stop-color="#ffffff"/><stop offset="1" stop-color="#808080"/></linearGradient><linearGradient x1="222.40277" y1="155.04234" x2="222.40277" y2="163.86057" gradientUnits="userSpaceOnUse" id="color-19"><stop offset="0" stop-color="#6e6e6e"/><stop offset="1" stop-color="#000000"/></linearGradient><linearGradient x1="218.88007" y1="147.54035" x2="218.88007" y2="152.14058" gradientUnits="userSpaceOnUse" id="color-20"><stop offset="0" stop-color="#6e6e6e"/><stop offset="1" stop-color="#000000"/></linearGradient><linearGradient x1="199.31324" y1="152.85669" x2="199.31324" y2="158.38046" gradientUnits="userSpaceOnUse" id="color-21"><stop offset="0" stop-color="#6e6e6e"/><stop offset="1" stop-color="#000000"/></linearGradient><linearGradient x1="195.20637" y1="145.72218" x2="210.42059" y2="145.72218" gradientUnits="userSpaceOnUse" id="color-22"><stop offset="0" stop-color="#808080"/><stop offset="1" stop-color="#ffffff"/></linearGradient><linearGradient x1="218.20891" y1="169.64544" x2="218.20891" y2="175.99838" gradientUnits="userSpaceOnUse" id="color-23"><stop offset="0" stop-color="#6e6e6e"/><stop offset="1" stop-color="#000000"/></linearGradient><linearGradient x1="197.40848" y1="171.61859" x2="206.12273" y2="171.61859" gradientUnits="userSpaceOnUse" id="color-24"><stop offset="0" stop-color="#000000"/><stop offset="1" stop-color="#6e6e6e"/></linearGradient><linearGradient x1="202.14241" y1="199.14235" x2="202.14241" y2="215.87921" gradientUnits="userSpaceOnUse" id="color-25"><stop offset="0" stop-color="#505050"/><stop offset="1" stop-color="#5c5c5c"/></linearGradient><linearGradient x1="201.28137" y1="201.90578" x2="201.28137" y2="205.94746" gradientUnits="userSpaceOnUse" id="color-26"><stop offset="0" stop-color="#6e6e6e"/><stop offset="1" stop-color="#000000"/></linearGradient><linearGradient x1="197.81257" y1="211.61604" x2="197.81257" y2="219.82657" gradientUnits="userSpaceOnUse" id="color-27"><stop offset="0" stop-color="#595959"/><stop offset="1" stop-color="#5c5c5c"/></linearGradient><linearGradient x1="210.86029" y1="180.967" x2="210.86029" y2="210.16702" gradientUnits="userSpaceOnUse" id="color-28"><stop offset="0" stop-color="#414141"/><stop offset="1" stop-color="#585858"/></linearGradient><linearGradient x1="209.17417" y1="209.6386" x2="209.17417" y2="216.00702" gradientUnits="userSpaceOnUse" id="color-29"><stop offset="0" stop-color="#575757"/><stop offset="1" stop-color="#ffffff"/></linearGradient><linearGradient x1="211.41428" y1="212.93335" x2="211.41428" y2="217.63861" gradientUnits="userSpaceOnUse" id="color-30"><stop offset="0" stop-color="#989898"/><stop offset="1" stop-color="#e3e3e3"/></linearGradient><linearGradient x1="209.7929" y1="212.91579" x2="209.7929" y2="218.05966" gradientUnits="userSpaceOnUse" id="color-31"><stop offset="0" stop-color="#989898"/><stop offset="1" stop-color="#e3e3e3"/></linearGradient><linearGradient x1="208.03785" y1="213.02808" x2="208.03785" y2="218.58597" gradientUnits="userSpaceOnUse" id="color-32"><stop offset="0" stop-color="#989898"/><stop offset="1" stop-color="#e3e3e3"/></linearGradient><linearGradient x1="206.32357" y1="212.05966" x2="206.32357" y2="218.69124" gradientUnits="userSpaceOnUse" id="color-33"><stop offset="0" stop-color="#989898"/><stop offset="1" stop-color="#e3e3e3"/></linearGradient><linearGradient x1="218.30938" y1="177.45559" x2="218.30938" y2="186.73699" gradientUnits="userSpaceOnUse" id="color-34"><stop offset="0" stop-color="#808080"/><stop offset="1" stop-color="#ffffff"/></linearGradient><linearGradient x1="227.87801" y1="162.72233" x2="227.87801" y2="169.67979" gradientUnits="userSpaceOnUse" id="color-35"><stop offset="0" stop-color="#808080"/><stop offset="1" stop-color="#ffffff"/></linearGradient><linearGradient x1="217.80414" y1="162.93874" x2="217.80414" y2="171.076" gradientUnits="userSpaceOnUse" id="color-36"><stop offset="0" stop-color="#808080"/><stop offset="1" stop-color="#ffffff"/></linearGradient><linearGradient x1="222.35433" y1="161.44042" x2="222.35433" y2="164.69753" gradientUnits="userSpaceOnUse" id="color-37"><stop offset="0" stop-color="#dadada"/><stop offset="1" stop-color="#8b8b8b"/></linearGradient><linearGradient x1="218.38513" y1="167.61869" x2="218.38513" y2="170.11869" gradientUnits="userSpaceOnUse" id="color-38"><stop offset="0" stop-color="#ffffff"/><stop offset="1" stop-color="#ff0000"/></linearGradient><linearGradient x1="225.03511" y1="168.01869" x2="225.03511" y2="169.61869" gradientUnits="userSpaceOnUse" id="color-39"><stop offset="0" stop-color="#ffffff"/><stop offset="1" stop-color="#ff0000"/></linearGradient></defs><g transform="translate(-181.23546,-137.10045)"><g data-paper-data="{&quot;isPaintingLayer&quot;:true}" fill-rule="nonzero" stroke-linejoin="miter" stroke-miterlimit="10" stroke-dasharray="" stroke-dashoffset="0" style="mix-blend-mode: normal"><path d="" fill="#1e1e1e" stroke="#000000" stroke-width="0.25" stroke-linecap="round"/><path d="" fill="#000000" stroke="#000000" stroke-width="0.25" stroke-linecap="round"/><g><path d="M241.57495,215.93183c0,3.69358 -13.50747,6.68782 -30.16975,6.68782c-16.66228,0 -30.16974,-2.99424 -30.16974,-6.68781c0,-3.69358 13.50747,-6.68781 30.16974,-6.68781c16.66227,0 30.16975,2.99424 30.16975,6.68782z" fill-opacity="0.59476" fill="#000000" stroke="none" stroke-width="0" stroke-linecap="butt"/><g stroke="#000000" stroke-linecap="round"><path d="M210.11467,209.68678l-5.14286,-1.57143c0,0 -3.6382,-0.92113 -5.28572,-2.5c-1.64751,-1.57887 -1.58328,-3.78576 -3.28571,-5.71429c-1.70243,-1.92853 -3.79461,-2.58032 -5.85714,-4.64286c-2.06254,-2.06254 -3.71429,-4.92857 -3.71429,-4.92857l0.64286,-1l-0.67826,-1.43329c0,0 -0.04169,-5.83911 0.18831,-8.07303c0.16321,-1.5852 1.06138,-4.06511 1.06138,-4.06511c0,0 1.87194,4.41632 2.47078,6.44989c0.53733,1.8247 0.95779,5.19296 0.95779,5.19296l4.64286,2.35715l2.78571,-0.14286l-0.71428,0.78571c0,0 0.8505,3.43655 2.07143,5.28572c1.22092,1.84917 3.21223,3.61245 5.28571,5.85715c2.07349,2.2447 2.49999,2.57143 2.49999,2.57143l1.85714,1.21429" fill="#363636" stroke-width="0.375"/><path d="M196.18696,189.71535l2.76471,-0.11765l-0.70588,0.76471l1.58824,4.94118l-0.47059,1.11765l-2.11765,-1.82353l-1.41176,-0.17647l-0.29412,-2.17648l-1,-0.05882l-0.23529,-3.23529z" fill="#000000" stroke-width="0.25"/><path d="M197.21639,194.56825l-1.35294,-0.11765l-0.41176,-2.23529l-0.94118,-0.05882l-0.11765,-2.52941c0,0 1.8988,1.19077 2.70588,2.29412c0.80708,1.10335 2,4.23529 2,4.23529z" fill="url(#color-1)" stroke-width="0.25"/><path d="M186.77522,185.48004c0,0 -0.0981,-3.45535 0.11765,-5.23529c0.21575,-1.77994 1.05882,-4.47059 1.05882,-4.47059c0,0 1.9973,4.2094 2.52941,5.94118c0.53211,1.73178 0.70588,4.58824 0.70588,4.58824l-1.23529,2.11765l-0.70588,-1.23529l-0.64706,2.58824l-1.82353,-4.29412z" fill="#000000" stroke-width="0.25"/><path d="M190.0105,188.30357l-0.70588,-1.05882l-0.76471,2.47059l-0.82353,-2l0.35294,-8.58824c0,0 1.04891,4.26223 1.54848,5.73923c0.32495,0.96071 1.15741,2.26077 1.15741,2.26077z" fill="url(#color-2)" stroke-width="0.25"/><path d="M194.89285,192.18591c0,0 0.10195,-0.38965 0.3221,-0.54976c0.21082,-0.15332 0.97202,-0.39141 0.97202,-0.39141" fill="none" stroke-width="0.25"/><path d="M195.83403,193.42118c0,0 0.36822,-0.42013 0.59402,-0.58007c0.24346,-0.17245 0.81775,-0.41993 0.81775,-0.41993" fill="none" stroke-width="0.25"/><path d="M198.06933,194.24476l-0.58824,0.29412" fill="none" stroke-width="0.25"/><path d="M187.95168,186.53884c0,0 0.74798,-0.41359 1.11509,-0.44335c0.35816,-0.02904 1.06138,0.26688 1.06138,0.26688" fill="none" stroke-width="0.25"/><path d="M188.0105,184.36242c0,0 0.34764,-0.34152 0.54337,-0.36821c0.23007,-0.03137 0.75075,0.19174 0.75075,0.19174" fill="none" stroke-width="0.25"/><path d="M188.06933,182.24477c0,0 0.21183,-0.09413 0.32432,-0.11288c0.12202,-0.02034 0.38156,-0.00477 0.38156,-0.00477" fill="none" stroke-width="0.25"/></g><g stroke="#000000" stroke-width="0.25" stroke-linecap="round"><path d="M220.79183,214.84071c0,0 -3.11357,-0.62898 -4.79817,-0.53413c-2.11979,0.11935 -4.19983,1.55426 -6.91762,1.19378c-2.71779,-0.36048 -4.74036,-2.68421 -4.74036,-2.68421l0.90878,0.29825l-2.38948,-13.2807l0.66666,0.78948l2.63158,-13.08772l0.23158,1.22807l2.30877,-8.83158l0.27017,0.77543l2.69122,-7.61754l0.1614,1.05616l1.05965,-4.04562c0,0 3.86199,-1.41669 5.66829,-1.45258c1.48658,-0.02954 4.39838,1.25257 4.39838,1.25257l1.85263,5.63158l-0.58596,-1.03158l0.86667,11.06667l-0.80351,-0.84211l-0.7193,12.0807l-0.37894,-0.62105l0.33684,6.72632l-0.36841,-0.78596l-0.04912,2.63509" fill="url(#color-3)"/><g fill="none"><path d="M220.27804,185.30374c0,0 -2.27429,2.15474 -3.13043,3.91304c-0.85614,1.75831 -0.43008,2.69733 -0.91305,4.39131c-0.48297,1.69397 -1.05112,3.61697 -2,5.82609c-0.94888,2.20912 -2.07551,4.71356 -3.78261,7.52174c-1.7071,2.80818 -4.91304,6.78261 -4.91304,6.78261"/><path d="M219.23461,189.695c0,0 -1.56518,-0.1784 -2.22585,-0.36065c-0.59284,-0.16354 -1.55676,-0.68282 -1.55676,-0.68282"/><path d="M218.62595,192.39065c0,0 -1.32434,0.23882 -1.9451,0.16492c-0.59559,-0.07091 -1.70708,-0.59971 -1.70708,-0.59971"/><path d="M216.88674,196.82546c0,0 -1.02172,-0.19289 -1.4738,-0.40099c-0.46081,-0.21212 -1.26533,-0.85989 -1.26533,-0.85989"/><path d="M215.49549,200.12977c0,0 -1.04495,-0.15582 -1.44698,-0.36822c-0.36184,-0.19117 -0.85736,-0.84918 -0.85736,-0.84918"/><path d="M213.31578,203.91243c0,0 -0.53545,-0.14265 -0.88308,-0.39c-0.39892,-0.28384 -1.11112,-1.21869 -1.11112,-1.21869"/><path d="M211.58239,207.95591c0,0 -1.03199,-0.39613 -1.41085,-0.7054c-0.32199,-0.26285 -0.71958,-1.03373 -0.71958,-1.03373"/><path d="M209.62595,210.91243c0,0 -1.21051,-0.09898 -1.70641,-0.33083c-0.60006,-0.28055 -1.64141,-1.23438 -1.64141,-1.23438"/><path d="M207.3216,213.26026c0,0 -0.68633,-0.08019 -0.97912,-0.32027c-0.39865,-0.32689 -1.19479,-1.46234 -1.19479,-1.46234"/></g></g><g stroke="#000000" stroke-width="0.25" stroke-linecap="round"><path d="M220.43357,202.03705l3.73685,-2.89473l-0.84211,1.42105l4.52631,-0.63158l-2.05263,1.05263l3.89473,2.10526l-1.05263,0.42106l0.78947,3.57894l-0.57894,-0.42105l-0.84211,6l-0.31579,-1.36842l-3,4.15789l-0.36842,-0.78947l-2.68421,1.21053l-1.52632,-1.42105" fill="url(#color-4)"/><g><path d="M229.23421,206.94862l-1.93043,-1.62029l-1.29846,0.57225l-0.6087,-1.86957l-2.17391,1.30435l1.34783,-4.91304l3.52174,-0.56522l-2.17391,1.08696l3.82609,2.13043l-1.04348,0.47826z" fill="#000000"/><path d="M224.2227,201.94401c0,0 1.78815,0.23667 2.52174,1c0.73359,0.76333 1.91304,3.43478 1.91304,3.43478l-1.35318,-0.9667l-1.25552,0.44496l-0.69565,-1.82609l-2,1.26087z" fill="url(#color-5)"/></g><g><path d="M227.18447,211.61604l1.52632,1.94737l2.21052,0.10527l4.36843,0.57894l1.05263,0.52632l-1.36842,5.05263l-0.94737,-0.63158l-2.94737,-0.47369l-5.47368,-1.73684l-3.47368,-0.63158l2.52632,-1.15789" fill="url(#color-6)"/><path d="M235.02656,214.19499c0,0 1.95924,0.6345 2.40362,1.01109c0.56258,0.47676 1.70165,1.98891 1.70165,1.98891l-3.15789,-0.94737" fill="#5a5a5a"/><path d="M234.50019,215.19499c0,0 2.02285,0.77089 2.45561,1.18005c0.51707,0.48886 1.49176,1.97785 1.49176,1.97785l-2.84211,-1.05263" fill="#5b5b5b"/><path d="M234.07921,216.24762c0,0 2.10886,0.93559 2.56459,1.38304c0.50426,0.49509 1.43541,1.88012 1.43541,1.88012l-3.26315,-1.36842" fill="#5b5b5b"/><path d="M233.92135,217.45815c0,0 1.95575,0.85229 2.34116,1.37473c0.40326,0.54664 1.02727,2.09895 1.02727,2.09895l-4.26316,-2.05263" fill="#5b5b5b"/></g></g><path d="M221.45202,204.47759l-1.65217,4.13043l-0.73913,-1.56522l-1.21739,1.43479l-0.39131,-2.30435" fill="#555555" stroke="#000000" stroke-width="0.25" stroke-linecap="round"/><g stroke="#000000" stroke-width="0.25" stroke-linecap="round"><path d="M224.71254,181.86176l0.09005,14.2826l-0.64733,-0.05885l0.73974,8.0324l-0.67719,-0.4807l0.83859,5.79299l-3.89824,0.24912l-0.37929,-5.95576l0.49157,0.43647l-0.18156,-7.83937l0.39462,0.32096l-0.24813,-8.84301" data-paper-data="{&quot;index&quot;:null}" fill="url(#color-7)"/><path d="M224.57357,209.16492c0,0 1.4664,0.46986 1.73684,1.26316c0.27044,0.7933 0.5376,2.21438 0.10527,3.52631c-0.43234,1.31193 -1.34035,-0.02105 -1.34035,-0.02105l-3.71228,-0.30526c0,0 -0.97268,1.32716 -1.15789,0.8c-0.18522,-0.52716 -0.48756,-2.03535 -0.26315,-3.31579c0.2244,-1.28044 1.15789,-1.78947 1.15789,-1.78947" data-paper-data="{&quot;index&quot;:null}" fill="url(#color-8)"/><path d="M222.09985,212.95439l-1.05263,4.21053c0,0 -0.74209,-1.75673 -0.94737,-2.94737c-0.20529,-1.19064 -0.30527,-2.15789 -0.30527,-2.15789" data-paper-data="{&quot;index&quot;:null}" fill="url(#color-9)"/><path d="M223.57008,213.01755l-1.31228,4.56842c0,0 -0.68215,-1.83952 -0.79193,-2.83603c-0.11773,-1.06862 -0.29228,-2.70782 -0.29228,-2.70782" data-paper-data="{&quot;index&quot;:null}" fill="url(#color-10)"/><path d="M225.349,212.67974c0,0 0.10095,1.22979 -0.15492,2.21916c-0.26971,1.04291 -1.35736,3.21339 -1.35736,3.21339l-0.87369,-5.55789" data-paper-data="{&quot;index&quot;:null}" fill="url(#color-11)"/><path d="M226.67883,212.25263c0,0 0.22571,0.518 0.1044,1.41717c-0.16392,1.2149 -0.99913,4.54774 -0.99913,4.54774l-0.78948,-5.6772" data-paper-data="{&quot;index&quot;:null}" fill="url(#color-12)"/></g><path d="M223.27607,186.30036l-1.66667,2l-0.2,-0.66667l-4.73333,2.2" fill="none" stroke="#000000" stroke-width="0.25" stroke-linecap="round"/><path d="M208.88674,191.99935l-0.69565,-4.26087l-0.52174,0.95652l0.30435,-6.26087" fill="none" stroke="#000000" stroke-width="0.25" stroke-linecap="round"/><g stroke="#000000" stroke-width="0.25" stroke-linecap="round"><path d="M216.93299,211.39213c0,0 -0.1977,1.79646 -0.875,3.125c-0.6773,1.32854 -1.4899,1.25631 -1.91667,1.125c-0.42677,-0.13131 -0.20353,-0.70656 -0.58333,-1.29167c-0.3798,-0.5851 -0.33333,-1.08333 -0.33333,-1.08333" fill="url(#color-13)"/><path d="M214.80799,211.39214c0,0 -0.07271,1.79645 -0.75,3.125c-0.67729,1.32855 -1.4899,1.25631 -1.91666,1.125c-0.42676,-0.13131 -0.32853,-0.70657 -0.70834,-1.29167c-0.37981,-0.5851 -0.45834,-2.08333 -0.45834,-2.08333" fill="url(#color-14)"/></g><g stroke="#000000" stroke-width="0.25" stroke-linecap="round"><path d="M213.58239,204.3037c0,0 1.04939,-0.94185 2,-0.91304c0.95061,0.02881 1.71449,0.19363 1.91304,1.26087c0.19856,1.06724 -0.51455,1.93321 -1.08695,2.52174c-0.5724,0.58852 -2,0.65217 -2,0.65217l-0.26087,2.82609" fill="url(#color-15)"/><path d="M215.54277,203.70731c0,0 1.1311,0.41766 1.41667,1.04167c0.28556,0.62401 -0.29167,1.41667 -0.29167,1.41667" fill="#555555"/></g><path d="M214.92735,202.78776l-1.56522,2.82609l-0.60869,-0.82609" fill="#525252" stroke="#000000" stroke-width="0.25" stroke-linecap="round"/><g stroke="#000000" stroke-linecap="round"><path d="M228.86866,162.25462c0,0 2.26126,2.92614 4.12338,4.48587c1.86212,1.55973 4.23377,2.51413 4.23377,2.51413c0,0 -2.90514,0.76383 -4.78571,0.64286c-1.88057,-0.12097 -7.42857,-1.42857 -7.42857,-1.42857" fill="#363636" stroke-width="0.375"/><path d="M237.17869,169.27691c0,0 -2.04006,0.66042 -3.625,0.625c-1.58494,-0.03541 -4,-0.70833 -4,-0.70833l1.5,-0.5l-2.20833,-2.125l3,0.79167l-0.125,-0.83333l2.04167,0.79167z" fill="#000000" stroke-width="0.25"/><path d="M231.72033,166.73526l4.16667,2.16667l-5.66667,0.16667l0.5,-0.29167l-1.95833,-2.25l2.875,0.66667z" fill="url(#color-16)" stroke-width="0.25"/></g><g stroke="#000000" stroke-linecap="round"><path d="M226.7972,153.96896c0,0 3.0833,-0.48364 4.93507,-1.13101c1.85177,-0.64737 3.85065,-1.94041 3.85065,-1.94041c0,0 -0.79282,5.28201 -2.71429,7.92857c-1.92147,2.64655 -4.85714,2.5 -4.85714,2.5" fill="#363636" stroke-width="0.375"/><path d="M235.55369,150.94359c0,0 -0.38024,2.40845 -0.73861,3.66991c-0.33442,1.17714 -1.51139,3.45509 -1.51139,3.45509l0.375,-3.45834l-0.875,-0.08333l0.75,-0.875l-2.41667,-0.45834z" fill="#000000" stroke-width="0.25"/><path d="M233.63701,153.56859l-1.08333,-0.29167l2.45833,-1.33333l-1.45833,4.29167v-1.58334l-0.83333,-0.08333z" fill="url(#color-17)" stroke-width="0.25"/></g><path d="M205.75722,159.33748c0,-6.51696 5.28304,-11.8 11.8,-11.8c6.51696,0 11.8,5.28304 11.8,11.8c0,6.51696 -5.28304,11.8 -11.8,11.8c-6.51696,0 -11.8,-5.28304 -11.8,-11.8z" fill="#363636" stroke="#000000" stroke-width="0.375" stroke-linecap="butt"/><path d="M229.33454,158.54234c0,0 -0.20833,1.40301 -0.31105,2.00122c-0.14194,0.82662 -0.59804,2.68059 -0.59804,2.68059c0,0 -1.49976,0.63119 -2.13271,0.65277c-0.69464,0.02368 -2.14002,-0.69822 -2.14002,-0.69822l1.45454,-4.04546c0,0 0.12187,-4.16864 1.72727,-4.45454c1.6054,-0.28589 2,3.86364 2,3.86364z" fill="#282828" stroke="#000000" stroke-width="0.375" stroke-linecap="round"/><path d="M224.65533,161.45c0,0 2.01506,-1.6459 2.75,-1.91667c0.73494,-0.27076 2,0.16667 2,0.16667" data-paper-data="{&quot;index&quot;:null}" fill="none" stroke="#000000" stroke-width="0.375" stroke-linecap="round"/><g stroke="#000000" stroke-width="0.375" stroke-linecap="round"><path d="M233.65429,142.18317l1.78571,-0.28571l-2.71429,5.35714l1.71429,-0.28571l-2.71429,2.92857l1.85714,0.28571l-3.64286,2l1.92857,3.78571l-2.92857,-1.21429" fill="url(#color-18)"/><path d="M222.97252,149.01441l5.75325,-6.04545l5.85714,-4.57143l-0.21429,3.85714l-5.57143,13.64286" fill="#363636"/></g><path d="M211.88603,164.45046c0,0 -1.73881,-1.9757 -2.05556,-3.88889c-0.31676,-1.91319 -0.27918,-3.24271 0.66667,-4.5c0.94585,-1.25729 2.09396,-2.48225 3.72222,-2.11111c1.10517,0.25192 2.67893,2.0376 3.83334,3.83333c1.1544,1.79574 1.05555,2.77777 1.05555,2.77777l1.5,2.83334c0,0 -3.56015,1.37529 -5.11685,1.56368c-1.30671,0.15814 -3.60537,-0.50812 -3.60537,-0.50812z" fill="#282828" stroke="#000000" stroke-width="0.375" stroke-linecap="round"/><path d="M209.822,160.2c0,0 2.74982,-1.07871 5.08333,-0.5c2.33351,0.57871 5.33333,3.08333 5.33333,3.08333" data-paper-data="{&quot;index&quot;:null}" fill="none" stroke="#000000" stroke-width="0.375" stroke-linecap="round"/><path d="M211.11534,149.48194l4.75325,-4.94156l-0.71429,1.57143l5.35714,-1.21429l-1.07143,0.78571l5.28571,0.85714l-1.14286,1l2.85714,3.32467" fill="none" stroke="#000000" stroke-width="0.375" stroke-linecap="round"/><g stroke="#000000" stroke-linecap="round"><g><path d="M227.15277,153.86055c0,0 -0.54131,-0.35987 -1.27273,2.40909c-0.73143,2.76896 -1.27273,7.22727 -1.27273,7.22727l-3.63636,0.68182c0,0 -2.41628,-5.89711 -4.86364,-9.09091c-2.44736,-3.19381 -4.22727,-2.77273 -4.22727,-2.77273" fill="#363636" stroke-width="0.375"/><g stroke-width="0.25"><path d="M219.15277,158.76964l0.68182,-2.5909l0.22727,0.63636l2.36364,-1.77272l0.77273,1.95454l1,-1.13636l1.27273,3.36364l0.18182,3.63636l-5.54546,1z" fill="url(#color-19)"/><path d="M219.66186,157.29683c0,0 1.04308,1.23896 1.12727,2.2c0.08419,0.96104 -0.64538,3.30051 -0.64538,3.30051l-0.94024,-3.1646l-0.0911,-1.08708z" fill="#000000"/><path d="M225.47091,162.99685c0,0 -1.1651,-2.33446 -1.40909,-3.95455c-0.24399,-1.62009 0.53922,-1.82146 0.53922,-1.82146l0.58294,1.13862z" fill="#000000"/></g></g><g fill="none" stroke-width="0.25"><path d="M223.83454,162.95141l-1.72727,-2.68182l0.81818,0.4091l-0.95454,-2.22727l1.18182,0.09091l-1.63637,-2.81818l0.54546,-0.5l-2,-1.36364l0.13637,-2.04546"/><path d="M219.14276,152.90035l1.66667,-0.13333"/><path d="M222.14275,153.76701l-2.66667,0.6"/></g></g><path d="M229.33454,158.54234c0,0 -0.20833,1.40301 -0.31105,2.00122c-0.14194,0.82662 -0.59804,2.68059 -0.59804,2.68059c0,0 -1.49976,0.63119 -2.13271,0.65277c-0.69464,0.02368 -2.14002,-0.69822 -2.14002,-0.69822l1.45454,-4.04546c0,0 0.12187,-4.16864 1.72727,-4.45454c1.6054,-0.28589 2,3.86364 2,3.86364z" fill="none" stroke="#000000" stroke-width="0.375" stroke-linecap="round"/><g stroke="#000000" stroke-width="0.25" stroke-linecap="round"><path d="M216.0164,144.40602l-0.63636,1.68182l5.22727,-1.18182l-1.22727,0.81818l5.13636,0.90909l-0.95454,0.77273l0.72728,0.95454v0.86364l1.31818,1.18181l-3.72727,0.27273l-1.40909,1.5l-0.86364,-1.13637l-3.77273,-0.77273l1.54546,-1l-5.18182,-0.68182z" fill="#000000"/><path d="M212.38007,148.54236c0,0 1.69393,-1.05429 5.90909,-1c1.05629,0.0136 3.12833,0.30501 4.25753,0.84028c1.64946,0.78188 2.83338,1.9779 2.83338,1.9779l-3.5,0.36364l-1.4204,1.4164c0,0 -0.07776,-0.93224 -0.92372,-1.11352c-1.30787,-0.28026 -3.74678,-0.80288 -3.74678,-0.80288l1.42394,-0.98444z" fill="url(#color-20)"/></g><path d="M211.88603,164.45047c0,0 -1.73881,-1.9757 -2.05556,-3.88889c-0.31676,-1.91319 -0.27918,-3.24271 0.66667,-4.5c0.94585,-1.25729 2.09396,-2.48225 3.72222,-2.11111c1.10517,0.25192 2.67893,2.0376 3.83334,3.83333c1.1544,1.79574 1.05555,2.77777 1.05555,2.77777l1.5,2.83334c0,0 -3.56015,1.37529 -5.11685,1.56368c-1.30671,0.15814 -3.60537,-0.50812 -3.60537,-0.50812z" fill="none" stroke="#000000" stroke-width="0.375" stroke-linecap="round"/><g stroke="#000000" stroke-linecap="round"><path d="M206.99204,164.56635c0,0 -5.75459,-2.47615 -7.62338,-4.74025c-2.15072,-2.60567 -3.92857,-8.71429 -3.92857,-8.71429c0,0 4.23274,1.71823 6.24007,2.17351c1.79593,0.40733 5.24045,0.43038 5.24045,0.43038" fill="#363636" stroke-width="0.375"/><path d="M198.40848,152.23764l4.2381,3.28571l-2.2381,0.09524l0.28572,2.7619l-1.57143,-1.33333l-1,1.14286l-2.61904,-7.23809z" fill="#000000" stroke-width="0.25"/><path d="M199.31323,156.95188l-0.57143,0.38095l-1.90476,-4.47619l4.95238,2.61905l-1.38095,0.04762l0.2381,2.85714z" fill="url(#color-21)" stroke-width="0.25"/></g><g stroke="#000000" stroke-width="0.375" stroke-linecap="round"><path d="M205.84291,156.64397l-5.66363,-11.04544l-4.73637,-8.21818l5.7681,1.3353l7.0319,4.5647l4.5,6.3" fill="#363636"/><path d="M196.8492,138.36505l8.21429,4.92857l-1.92857,-0.21429l7.28571,7.35714l-2.35714,0.14286l1.64286,0.35714l-5.78571,1.35714l1,0.71429l-2.42857,0.28571l-3.28571,-3.57143l2.21429,-0.21429l-4.35714,-5.07143l1.85714,-0.92857l-3.71429,-5.35714z" fill="url(#color-22)"/><path d="M204.51803,150.68324l-5.28571,-3.71429l3.28571,0.21429l-4.57143,-5.35714l3.92857,0.85714" fill="none"/></g><g stroke="#000000" stroke-width="0.25" stroke-linecap="round"><path d="M223.26774,169.93956l0.82353,3.52941l-0.58823,-0.52941l-0.35295,3.29411l-1.11765,-1.17647l-0.41177,3.2353l-4.23529,-4.2353l-0.29412,0.94118l-2.2353,-2.05882l-0.7647,0.05882l-1.41177,-2.58824z" fill="#000000"/><g><path d="M216.6795,169.64545l3.11764,0.11765l-0.05882,3.17647l-0.23529,3.05882l-2.11765,-1.94118l-0.35294,0.76471l-0.41177,-0.29412l0.29412,-1.17647l-0.11765,-2.76471z" fill="url(#color-23)"/><path d="M219.68684,172.04432c0,0 -0.70065,0.38223 -1.33333,0.28572c-0.63268,-0.09651 -1.47619,-0.71429 -1.47619,-0.71429" fill="none"/><path d="M219.73443,170.7586c0,0 -0.74039,0.29549 -1.38095,0.19048c-0.64056,-0.10501 -1.52381,-0.66667 -1.52381,-0.66667" fill="none"/><path d="M219.63916,173.61575c0,0 -0.75893,0.33041 -1.33333,0.2381c-0.5744,-0.09232 -1.33334,-0.66667 -1.33334,-0.66667" fill="none"/></g></g><g stroke="#000000" stroke-linecap="round"><path d="M212.51152,169.96896c0,0 -3.86083,2.9393 -6.78571,3.35714c-2.92489,0.41784 -10.21429,-0.92857 -10.21429,-0.92857c0,0 4.82077,-2.2964 7.53782,-4.39076c2.71705,-2.09436 4.07907,-4.56378 4.07907,-4.56378" fill="#363636" stroke-width="0.375"/><path d="M200.21801,169.90431l4.09524,0.33333l-1.19048,1.33333l1.66667,0.61905l1.42857,-0.80953l-0.47619,1.95238l-10.09524,-0.90476z" fill="#000000" stroke-width="0.25"/><path d="M206.0275,172.28526l-2.19048,0.80953l-6.42857,-1.19047l4.95238,-1.57143l1.09524,-0.19047l0.80952,0.09524l-1.04762,1.33333l1.42857,0.61905l1.47619,-0.71428z" fill="url(#color-24)" stroke-width="0.25"/></g><g stroke="#000000" stroke-width="0.25" stroke-linecap="round"><path d="M206.93187,214.45816l-1.52632,1.42105l-2.68421,-1.21053l-0.36842,0.78947l-3,-4.15789l-0.31579,1.36842l-0.8421,-6l-0.57895,0.42105l0.78947,-3.57894l-1.05263,-0.42106l3.89473,-2.10526l-2.05263,-1.05263l4.52631,0.63158l-0.84211,-1.42105l3.73685,2.89473" fill="url(#color-25)"/><path d="M198.38554,203.6141l-1.25,-0.5l4.08333,-2.08333l-2.25,-1.125l4.91667,0.66667l-1.41667,5.16667l-0.76507,-1.14415l-3.93333,2.2z" fill="#000000"/><path d="M199.09387,205.94746c0,0 0.94052,-1.80339 1.875,-2.66667c0.93448,-0.86328 2.5,-1.375 2.5,-1.375l-1,3.83333l-0.83333,-1.16667z" fill="url(#color-26)"/><g><path d="M202.39151,215.195l2.52632,1.15789l-3.47368,0.63158l-5.47368,1.73684l-2.94737,0.47368l-0.94737,0.63158l-1.36842,-5.05263l1.05263,-0.52632l4.36842,-0.57895l2.21053,-0.10526l1.52632,-1.94737" fill="url(#color-27)"/><path d="M191.07573,216.24762l-3.15789,0.94737c0,0 1.13907,-1.51215 1.70164,-1.9889c0.44438,-0.37659 2.40362,-1.0111 2.40362,-1.0111" fill="#5a5a5a"/><path d="M191.44415,217.30025l-2.84211,1.05263c0,0 0.97469,-1.48899 1.49175,-1.97785c0.43276,-0.40916 2.45561,-1.18004 2.45561,-1.18004" fill="#5b5b5b"/><path d="M192.23363,218.14236l-3.26316,1.36842c0,0 0.93115,-1.38503 1.4354,-1.88012c0.45574,-0.44745 2.5646,-1.38304 2.5646,-1.38304" fill="#5b5b5b"/><path d="M194.0231,218.8792l-4.26316,2.05263c0,0 0.62401,-1.55231 1.02727,-2.09895c0.38541,-0.52244 2.34115,-1.37473 2.34115,-1.37473" fill="#5b5b5b"/></g></g><g stroke="#000000" stroke-width="0.25" stroke-linecap="round"><path d="M214.24446,184.79861l-1.06315,4.79298l0.59999,-0.84211l-1.45965,8.03158l0.6772,-0.59649l-1.05614,8.31228l0.58245,-0.23158l-0.78245,5.83508l-4.26666,0.06667l0.89122,-6.16141l-0.62456,0.74385l1.81403,-10.31579l-0.58596,0.55789l1.62808,-9.21053l-0.91579,0.5193l0.92631,-5.33333" fill="url(#color-28)"/><path d="M211.32733,209.7965c0,0 0.93349,0.50903 1.15789,1.78947c0.22441,1.28044 -0.07793,2.78863 -0.26315,3.31579c-0.18521,0.52716 -1.22456,-0.46667 -1.22456,-0.46667c0,0 -1.37972,-0.28883 -2.02413,-0.26988c-0.52307,0.01538 -1.68815,0.04181 -1.68815,0.04181c0,0 -0.84134,1.53298 -1.27368,0.22105c-0.43233,-1.31193 -0.16517,-2.73301 0.10527,-3.52631c0.27044,-0.7933 1.73684,-1.26316 1.73684,-1.26316" fill="url(#color-29)"/><path d="M212.49925,212.93335c0,0 0.03335,0.56725 -0.17193,1.75789c-0.20528,1.19064 -0.94737,2.94737 -0.94737,2.94737l-1.05263,-4.21053" fill="url(#color-30)"/><path d="M210.85361,212.91579c0,0 0.22545,1.2392 0.10772,2.30782c-0.10979,0.99651 -0.79193,2.83604 -0.79193,2.83604l-1.57895,-4.83509" fill="url(#color-31)"/><path d="M209.13083,213.02808c0,0 -0.11856,0.46211 -0.1558,1.12861c-0.06252,1.11891 -0.38454,4.42928 -0.38454,4.42928c0,0 -1.08765,-2.17048 -1.35736,-3.21339c-0.25587,-0.98936 -0.28825,-2.29188 -0.28825,-2.29188" fill="url(#color-32)"/><path d="M207.03261,212.94737l-0.38947,5.74386c0,0 -0.83522,-3.33284 -0.99913,-4.54774c-0.12132,-0.89917 0.17106,-2.08384 0.17106,-2.08384" fill="url(#color-33)"/></g><g stroke="#000000" stroke-width="0.25" stroke-linecap="round"><path d="M223.87613,182.50035l0.26667,1.46667l2.26667,2.73333c0,0 -1.90874,0.16354 -3.06667,-0.2c-1.15793,-0.36354 -2.53334,-1.26667 -2.53334,-1.26667c0,0 -1.91842,1.03768 -3.73333,1.19999c-1.81491,0.16231 -4.6,-0.8 -4.6,-0.8c0,0 2.13174,-0.90143 2.6,-1.26667c0.46826,-0.36524 0.73333,-1.33333 0.73333,-1.33333c0,0 -1.3895,-2.03624 -2.73333,-3c-1.34384,-0.96376 -3.86667,-1.73333 -3.86667,-1.73333l1.86667,-0.66667c0,0 5.07797,-0.40072 6.8,0c1.72203,0.40073 3.8,2.46667 3.8,2.46667l2.4,-1.93333l3.33333,-0.4z" fill="url(#color-34)"/><path d="M221.74276,180.10036c0,0 0.13491,1.64535 -0.06667,2.66667c-0.20157,1.02132 -0.93333,2.4 -0.93333,2.4" fill="none"/><path d="M219.80946,180.76702l3.06667,-0.13333" fill="none"/><path d="M220.14279,183.10036l2.46667,-0.13333" fill="none"/><path d="M221.7428,184.90035l-1.6,-0.53333" fill="none"/></g><g stroke="#000000" stroke-linecap="round"><path d="M227.18053,163.76306c0,0 1.66607,-0.83574 2.21981,-0.98614c0.57074,-0.15502 1.15519,0.06948 1.15519,0.06948c0,0 -0.61809,1.46499 -1.16836,2.09205c-0.63264,0.72092 -2.41497,1.99128 -2.41497,1.99128l3.65476,1.10714c0,0 -2.16445,1.7048 -3.00307,1.52048c-0.83862,-0.18432 -3.51393,0.0375 -3.51393,0.0375" fill="url(#color-35)" stroke-width="0.375"/><path d="M225.85912,168.088c-1.52176,1.48553 -2.96392,2.26927 -5.02857,2.70476c-2.06465,0.43549 -3.83587,0.30031 -5.40001,0.05078c-1.56414,-0.24954 -3.45833,-1.19048 -3.45833,-1.19048c0,0 -1.2301,0.60723 -2.29166,0.37501c-1.06156,-0.23221 -2.90278,-3.04167 -2.90278,-3.04167l4.20833,0.22223l-3.82197,-2.93181c0,0 2.31346,-1.27333 2.86977,-0.9987c0.63514,0.31355 2.34109,1.37496 2.34109,1.37496l2.83334,-0.38889l4.83333,-1.05555l6.54762,-0.26984l1.04762,0.26191l1.19365,-0.21746c0,0 -1.44966,3.61922 -2.97142,5.10475z" fill="url(#color-36)" stroke-width="0.375"/><path d="M216.68769,164.69753l3.57143,-1.52381c0,0 2.34177,-1.53281 4.04762,-1.71429c1.70584,-0.18147 2.66667,1 2.66667,1l1.04762,1.09524" fill="url(#color-37)" stroke-width="0.375"/><path d="M219.6679,163.11497l-0.93103,3l-1.37931,-2.51724" fill="#000000" stroke-width="0.25"/><g><path d="M220.79438,162.88985c0,0 2.67619,-1.68117 4,-1.62069c1.32381,0.06047 2.7931,1.93103 2.7931,1.93103l-3.58621,2.86207l-3.2069,-3.17241z" fill="#1e1e1e" stroke-width="0.375"/><path d="M220.83454,162.86048c0,0 1.78607,-0.19512 2.54546,0.59091c0.75939,0.78603 0.40909,2.27273 0.40909,2.27273z" fill="#000000" stroke-width="0.25"/><path d="M225.33454,165.04238c0,0 -0.19959,-1.19357 0.27273,-1.63637c0.47232,-0.4428 1.90909,-0.40909 1.90909,-0.40909z" fill="#000000" stroke-width="0.25"/></g><path d="M228.54035,162.99063l-0.80556,2.13889l-0.27778,-1.91667" fill="#000000" stroke-width="0.25"/><path d="M212.29179,167.94857l-0.41176,-0.58824l1.17647,-0.23529l-0.70588,-2.05882l2,1.23529" fill="none" stroke-width="0.25"/></g><g stroke="#000000" stroke-width="0.25" stroke-linecap="round"><path d="M223.90147,166.18515c0,0 0.02435,0.57597 -0.11625,0.89552c-0.16193,0.36802 -0.80042,1.18782 -0.80042,1.18782" fill="none"/><path d="M225.56811,167.96292c0,0 -0.92815,0.44937 -1.38889,0.5c-0.46074,0.05063 -0.20464,-0.27412 -1.13889,-0.22222c-0.93425,0.05191 -1.18995,0.56072 -2.36111,0.41667c-1.17117,-0.14404 -3.66667,-1.22222 -3.66667,-1.22222" fill="none"/><path d="M219.23515,168.26869l-1.35,1.85l-0.35,-2.5z" fill="url(#color-38)"/><path d="M225.48515,168.01869l-0.25,1.6l-0.65,-1.25z" fill="url(#color-39)"/></g></g></g></g></svg>