<svg version="1.1" xmlns="http://www.w3.org/2000/svg" xmlns:xlink="http://www.w3.org/1999/xlink" width="60.33949" height="85.5192" viewBox="0,0,60.33949,85.5192"><defs><linearGradient x1="225.2117" y1="195.32096" x2="223.4142" y2="201.59807" gradientUnits="userSpaceOnUse" id="color-1"><stop offset="0" stop-color="#6e6e6e"/><stop offset="1" stop-color="#000000"/></linearGradient><linearGradient x1="228.26591" y1="175.98898" x2="230.92278" y2="186.23846" gradientUnits="userSpaceOnUse" id="color-2"><stop offset="0" stop-color="#6e6e6e"/><stop offset="1" stop-color="#000000"/></linearGradient><linearGradient x1="224.72599" y1="207.21715" x2="219.20967" y2="203.7238" gradientUnits="userSpaceOnUse" id="color-3"><stop offset="0" stop-color="#6e6e6e"/><stop offset="1" stop-color="#000000"/></linearGradient><linearGradient x1="213.96554" y1="168.64729" x2="213.96554" y2="215.55829" gradientUnits="userSpaceOnUse" id="color-4"><stop offset="0" stop-color="#363636"/><stop offset="1" stop-color="#5d5d5d"/></linearGradient><linearGradient x1="224.90729" y1="199.14235" x2="224.90729" y2="215.87921" gradientUnits="userSpaceOnUse" id="color-5"><stop offset="0" stop-color="#505050"/><stop offset="1" stop-color="#5c5c5c"/></linearGradient><linearGradient x1="226.00534" y1="201.94401" x2="226.00534" y2="206.37884" gradientUnits="userSpaceOnUse" id="color-6"><stop offset="0" stop-color="#6e6e6e"/><stop offset="1" stop-color="#000000"/></linearGradient><linearGradient x1="229.23712" y1="211.61604" x2="229.23712" y2="219.82657" gradientUnits="userSpaceOnUse" id="color-7"><stop offset="0" stop-color="#595959"/><stop offset="1" stop-color="#5c5c5c"/></linearGradient><linearGradient x1="222.91759" y1="181.86176" x2="222.91759" y2="209.67932" gradientUnits="userSpaceOnUse" id="color-8"><stop offset="0" stop-color="#414141"/><stop offset="1" stop-color="#585858"/></linearGradient><linearGradient x1="223.25306" y1="209.16492" x2="223.25306" y2="215.53334" gradientUnits="userSpaceOnUse" id="color-9"><stop offset="0" stop-color="#575757"/><stop offset="1" stop-color="#ffffff"/></linearGradient><linearGradient x1="220.94718" y1="212.05966" x2="220.94718" y2="217.16492" gradientUnits="userSpaceOnUse" id="color-10"><stop offset="0" stop-color="#989898"/><stop offset="1" stop-color="#e3e3e3"/></linearGradient><linearGradient x1="222.48797" y1="212.50878" x2="222.48797" y2="217.58597" gradientUnits="userSpaceOnUse" id="color-11"><stop offset="0" stop-color="#989898"/><stop offset="1" stop-color="#e3e3e3"/></linearGradient><linearGradient x1="224.16584" y1="212.7544" x2="224.16584" y2="218.11229" gradientUnits="userSpaceOnUse" id="color-12"><stop offset="0" stop-color="#989898"/><stop offset="1" stop-color="#e3e3e3"/></linearGradient><linearGradient x1="225.91173" y1="212.5193" x2="225.91173" y2="218.21755" gradientUnits="userSpaceOnUse" id="color-13"><stop offset="0" stop-color="#989898"/><stop offset="1" stop-color="#e3e3e3"/></linearGradient><linearGradient x1="215.08835" y1="211.39213" x2="215.08835" y2="215.77363" gradientUnits="userSpaceOnUse" id="color-14"><stop offset="0" stop-color="#595959"/><stop offset="1" stop-color="#5b5b5b"/></linearGradient><linearGradient x1="212.90179" y1="211.39214" x2="212.90179" y2="215.77364" gradientUnits="userSpaceOnUse" id="color-15"><stop offset="0" stop-color="#595959"/><stop offset="1" stop-color="#5b5b5b"/></linearGradient><linearGradient x1="215.55593" y1="203.39002" x2="215.55593" y2="210.65157" gradientUnits="userSpaceOnUse" id="color-16"><stop offset="0" stop-color="#535353"/><stop offset="1" stop-color="#595959"/></linearGradient><linearGradient x1="228.76201" y1="167.79776" x2="234.47033" y2="167.79776" gradientUnits="userSpaceOnUse" id="color-17"><stop offset="0" stop-color="#000000"/><stop offset="1" stop-color="#6e6e6e"/></linearGradient><linearGradient x1="232.55369" y1="154.08942" x2="235.01201" y2="154.08942" gradientUnits="userSpaceOnUse" id="color-18"><stop offset="0" stop-color="#000000"/><stop offset="1" stop-color="#6e6e6e"/></linearGradient><radialGradient cx="226.7437" cy="159.27105" r="4.60646" gradientUnits="userSpaceOnUse" id="color-19"><stop offset="0" stop-color="#ffffff"/><stop offset="1" stop-color="#959595"/></radialGradient><linearGradient x1="228.94002" y1="148.93324" x2="235.44002" y2="148.93324" gradientUnits="userSpaceOnUse" id="color-20"><stop offset="0" stop-color="#ffffff"/><stop offset="1" stop-color="#808080"/></linearGradient><radialGradient cx="215.13007" cy="159.43292" r="5.54991" gradientUnits="userSpaceOnUse" id="color-21"><stop offset="0" stop-color="#ffffff"/><stop offset="1" stop-color="#8d8d8d"/></radialGradient><linearGradient x1="222.40277" y1="155.04234" x2="222.40277" y2="163.86057" gradientUnits="userSpaceOnUse" id="color-22"><stop offset="0" stop-color="#6e6e6e"/><stop offset="1" stop-color="#000000"/></linearGradient><linearGradient x1="218.88007" y1="147.54035" x2="218.88007" y2="152.14059" gradientUnits="userSpaceOnUse" id="color-23"><stop offset="0" stop-color="#6e6e6e"/><stop offset="1" stop-color="#000000"/></linearGradient><linearGradient x1="199.31324" y1="152.85669" x2="199.31324" y2="158.38047" gradientUnits="userSpaceOnUse" id="color-24"><stop offset="0" stop-color="#6e6e6e"/><stop offset="1" stop-color="#000000"/></linearGradient><linearGradient x1="195.20637" y1="145.72218" x2="210.42059" y2="145.72218" gradientUnits="userSpaceOnUse" id="color-25"><stop offset="0" stop-color="#808080"/><stop offset="1" stop-color="#ffffff"/></linearGradient><linearGradient x1="218.20891" y1="169.64544" x2="218.20891" y2="175.99838" gradientUnits="userSpaceOnUse" id="color-26"><stop offset="0" stop-color="#6e6e6e"/><stop offset="1" stop-color="#000000"/></linearGradient><linearGradient x1="197.40848" y1="171.61859" x2="206.12273" y2="171.61859" gradientUnits="userSpaceOnUse" id="color-27"><stop offset="0" stop-color="#000000"/><stop offset="1" stop-color="#6e6e6e"/></linearGradient><linearGradient x1="202.14241" y1="199.14235" x2="202.14241" y2="215.87921" gradientUnits="userSpaceOnUse" id="color-28"><stop offset="0" stop-color="#505050"/><stop offset="1" stop-color="#5c5c5c"/></linearGradient><linearGradient x1="201.28137" y1="201.90578" x2="201.28137" y2="205.94746" gradientUnits="userSpaceOnUse" id="color-29"><stop offset="0" stop-color="#6e6e6e"/><stop offset="1" stop-color="#000000"/></linearGradient><linearGradient x1="197.81257" y1="211.61604" x2="197.81257" y2="219.82657" gradientUnits="userSpaceOnUse" id="color-30"><stop offset="0" stop-color="#595959"/><stop offset="1" stop-color="#5c5c5c"/></linearGradient><linearGradient x1="210.86029" y1="180.967" x2="210.86029" y2="210.16702" gradientUnits="userSpaceOnUse" id="color-31"><stop offset="0" stop-color="#414141"/><stop offset="1" stop-color="#585858"/></linearGradient><linearGradient x1="209.17417" y1="209.6386" x2="209.17417" y2="216.00702" gradientUnits="userSpaceOnUse" id="color-32"><stop offset="0" stop-color="#575757"/><stop offset="1" stop-color="#ffffff"/></linearGradient><linearGradient x1="211.41428" y1="212.93335" x2="211.41428" y2="217.63861" gradientUnits="userSpaceOnUse" id="color-33"><stop offset="0" stop-color="#989898"/><stop offset="1" stop-color="#e3e3e3"/></linearGradient><linearGradient x1="209.7929" y1="212.91579" x2="209.7929" y2="218.05966" gradientUnits="userSpaceOnUse" id="color-34"><stop offset="0" stop-color="#989898"/><stop offset="1" stop-color="#e3e3e3"/></linearGradient><linearGradient x1="208.03785" y1="213.02808" x2="208.03785" y2="218.58597" gradientUnits="userSpaceOnUse" id="color-35"><stop offset="0" stop-color="#989898"/><stop offset="1" stop-color="#e3e3e3"/></linearGradient><linearGradient x1="206.32357" y1="212.05966" x2="206.32357" y2="218.69124" gradientUnits="userSpaceOnUse" id="color-36"><stop offset="0" stop-color="#989898"/><stop offset="1" stop-color="#e3e3e3"/></linearGradient><linearGradient x1="218.30938" y1="177.45559" x2="218.30938" y2="186.73699" gradientUnits="userSpaceOnUse" id="color-37"><stop offset="0" stop-color="#808080"/><stop offset="1" stop-color="#ffffff"/></linearGradient><linearGradient x1="227.87801" y1="162.72234" x2="227.87801" y2="169.67979" gradientUnits="userSpaceOnUse" id="color-38"><stop offset="0" stop-color="#808080"/><stop offset="1" stop-color="#ffffff"/></linearGradient><linearGradient x1="217.80414" y1="162.93874" x2="217.80414" y2="171.076" gradientUnits="userSpaceOnUse" id="color-39"><stop offset="0" stop-color="#808080"/><stop offset="1" stop-color="#ffffff"/></linearGradient><linearGradient x1="222.35433" y1="161.44042" x2="222.35433" y2="164.69753" gradientUnits="userSpaceOnUse" id="color-40"><stop offset="0" stop-color="#dadada"/><stop offset="1" stop-color="#8b8b8b"/></linearGradient><linearGradient x1="218.38513" y1="167.61869" x2="218.38513" y2="170.11869" gradientUnits="userSpaceOnUse" id="color-41"><stop offset="0" stop-color="#ffffff"/><stop offset="1" stop-color="#ff0000"/></linearGradient><linearGradient x1="225.03511" y1="168.01869" x2="225.03511" y2="169.61869" gradientUnits="userSpaceOnUse" id="color-42"><stop offset="0" stop-color="#ffffff"/><stop offset="1" stop-color="#ff0000"/></linearGradient></defs><g transform="translate(-181.23546,-137.10045)"><g data-paper-data="{&quot;isPaintingLayer&quot;:true}" fill-rule="nonzero" stroke-linejoin="miter" stroke-miterlimit="10" stroke-dasharray="" stroke-dashoffset="0" style="mix-blend-mode: normal"><path d="" fill="#1e1e1e" stroke="#000000" stroke-width="0.25" stroke-linecap="round"/><path d="" fill="#000000" stroke="#000000" stroke-width="0.25" stroke-linecap="round"/><g><g data-paper-data="{&quot;index&quot;:null}" stroke="#000000" stroke-linecap="round"><path d="M215.9601,199.49661l3.92602,-0.843l5.83297,-4.87719l-0.20816,0.83445l3.16735,-9.62663l-0.32633,-11.79585l-0.52879,-2.93998l3.15384,6.65818l1.98206,9.25192l0.48752,7.14177l-3.39794,9.016l1.20987,0.12454l-5.95966,5.15761l0.81631,0.62201l-6.92685,-0.17507l1.08532,1.33441l-5.15582,-2.41368" fill="#363636" stroke-width="0.375"/><path d="M227.74478,195.34265l-1.11685,3.0455l-0.97755,-0.21875l-0.88192,2.01142l-1.40579,-0.219l-2.53783,1.1701l-2.59151,-2.14059l1.5234,-0.3839l3.81052,-2.99256l1.68263,-1.39279l0.47478,1.33752z" fill="#000000" stroke-width="0.25"/><path d="M220.82158,201.08984l-1.6774,-1.2999c0,0 4.01704,-1.52212 5.09669,-2.36066c0.45501,-0.35341 1.99876,-1.95925 1.99876,-1.95925l1.58925,-0.10057l-1.16456,2.99852l-0.92101,-0.20255l-1.01121,2.03557l-1.33305,-0.25935z" fill="url(#color-1)" stroke-width="0.25"/><path d="M225.16341,196.9666c0,0 0.80645,0.50178 0.96691,0.70722c0.16756,0.21453 0.15831,0.61719 0.15831,0.61719" fill="none" stroke-width="0.25"/><path d="M223.96183,197.86947c0,0 0.48397,0.39601 0.67054,0.62883c0.17304,0.21592 0.41137,0.72118 0.41137,0.72118" fill="none" stroke-width="0.25"/><path d="M223.15265,199.84052l-1.02721,-1.1119" fill="none" stroke-width="0.25"/><path d="M232.25157,181.51873l-0.68768,4.6143l-1.27581,-2.34307l-0.37333,1.37289l-1.16633,-1.48658c0,0 -0.36529,-3.40115 -0.28476,-5.21105c0.08053,-1.80989 -0.48491,-8.05043 -0.48491,-8.05043c0,0 2.18978,4.39677 2.84526,6.06563c0.65549,1.66886 1.42756,5.03828 1.42756,5.03828z" fill="#000000" stroke-width="0.25"/><path d="M228.79285,184.11679c0,0 0.47961,-1.46735 0.55309,-2.47886c0.11297,-1.55509 0.05881,-5.94416 0.05881,-5.94416l2.49667,8.2249l-0.29533,2.14266l-1.36017,-2.19966l-0.41761,1.20207z" fill="url(#color-2)" stroke-width="0.25"/><path d="M229.22733,183.21419c0,0 0.60647,-0.46291 0.96046,-0.52467c0.36283,-0.0633 1.19066,0.14936 1.19066,0.14936" fill="none" stroke-width="0.25"/><path d="M229.47835,180.90073c0,0 0.44803,-0.34662 0.67862,-0.37398c0.19617,-0.02328 0.61838,0.22008 0.61838,0.22008" fill="none" stroke-width="0.25"/><path d="M229.4742,178.77494c0,0 0.24733,-0.08019 0.37055,-0.09112c0.1136,-0.01007 0.34227,0.02789 0.34227,0.02789" fill="none" stroke-width="0.25"/><path d="M224.95044,206.69781l0.53471,1.31471l-2.18288,0.07849l-4.33385,-0.06557l1.28212,1.34393l-5.00718,-2.43533l0.6484,-1.31472l4.36738,-0.6391l0.90441,-1.0983l1.99613,0.91597l0.58471,-0.81337l2.85919,1.53216z" data-paper-data="{&quot;index&quot;:null}" fill="#000000" stroke-width="0.25"/><path d="M220.29973,204.97109l0.82324,-1.08008l2.10877,0.84805l0.55324,-0.76368l1.78257,1.1534c0,0 -2.39369,1.12055 -2.96854,1.15913c-1.36396,0.09154 -7.33929,0.73886 -7.33929,0.73886l1.09634,-1.59768z" data-paper-data="{&quot;index&quot;:null}" fill="url(#color-3)" stroke-width="0.25"/><path d="M223.55554,204.28269c0,0 0.27464,0.2946 0.29213,0.56625c0.01675,0.26013 -0.25197,1.17115 -0.25197,1.17115" data-paper-data="{&quot;index&quot;:null}" fill="none" stroke-width="0.25"/><path d="M222.00838,204.41692c0,0 0.15794,0.53587 0.17226,0.8122c0.01544,0.29795 -0.08273,0.91554 -0.08273,0.91554" data-paper-data="{&quot;index&quot;:null}" fill="none" stroke-width="0.25"/><path d="M220.18293,205.21047l-0.02793,1.5135" data-paper-data="{&quot;index&quot;:null}" fill="none" stroke-width="0.25"/></g><path d="M241.57495,215.93183c0,3.69358 -13.50747,6.68782 -30.16975,6.68782c-16.66228,0 -30.16974,-2.99424 -30.16974,-6.68781c0,-3.69358 13.50747,-6.68781 30.16974,-6.68781c16.66227,0 30.16975,2.99424 30.16975,6.68782z" fill-opacity="0.59476" fill="#000000" stroke="none" stroke-width="0" stroke-linecap="butt"/><g stroke="#000000" stroke-width="0.25" stroke-linecap="round"><path d="M220.79183,214.84071c0,0 -3.11357,-0.62898 -4.79817,-0.53413c-2.11979,0.11935 -4.19983,1.55426 -6.91762,1.19378c-2.71779,-0.36048 -4.74036,-2.68421 -4.74036,-2.68421l0.90878,0.29825l-2.38948,-13.2807l0.66666,0.78948l2.63158,-13.08772l0.23158,1.22807l2.30877,-8.83158l0.27017,0.77543l2.69122,-7.61754l0.1614,1.05616l1.05965,-4.04562c0,0 3.86199,-1.41669 5.66829,-1.45258c1.48658,-0.02954 4.39838,1.25257 4.39838,1.25257l1.85263,5.63158l-0.58596,-1.03158l0.86667,11.06667l-0.80351,-0.84211l-0.7193,12.0807l-0.37894,-0.62105l0.33684,6.72632l-0.36841,-0.78596l-0.04912,2.63509" fill="url(#color-4)"/><g fill="none"><path d="M220.27804,185.30374c0,0 -2.27429,2.15474 -3.13043,3.91304c-0.85614,1.75831 -0.43008,2.69733 -0.91305,4.39131c-0.48297,1.69397 -1.05112,3.61697 -2,5.82609c-0.94888,2.20912 -2.07551,4.71356 -3.78261,7.52174c-1.7071,2.80818 -4.91304,6.78261 -4.91304,6.78261"/><path d="M219.23461,189.695c0,0 -1.56518,-0.1784 -2.22585,-0.36065c-0.59284,-0.16354 -1.55676,-0.68282 -1.55676,-0.68282"/><path d="M218.62595,192.39065c0,0 -1.32434,0.23882 -1.9451,0.16492c-0.59559,-0.07091 -1.70708,-0.59971 -1.70708,-0.59971"/><path d="M216.88674,196.82546c0,0 -1.02172,-0.19289 -1.4738,-0.40099c-0.46081,-0.21212 -1.26533,-0.85989 -1.26533,-0.85989"/><path d="M215.49549,200.12977c0,0 -1.04495,-0.15582 -1.44698,-0.36822c-0.36184,-0.19117 -0.85736,-0.84918 -0.85736,-0.84918"/><path d="M213.31578,203.91243c0,0 -0.53545,-0.14265 -0.88308,-0.39c-0.39892,-0.28384 -1.11112,-1.21869 -1.11112,-1.21869"/><path d="M211.58239,207.95591c0,0 -1.03199,-0.39613 -1.41085,-0.7054c-0.32199,-0.26285 -0.71958,-1.03373 -0.71958,-1.03373"/><path d="M209.62595,210.91243c0,0 -1.21051,-0.09898 -1.70641,-0.33083c-0.60006,-0.28055 -1.64141,-1.23438 -1.64141,-1.23438"/><path d="M207.3216,213.26026c0,0 -0.68633,-0.08019 -0.97912,-0.32027c-0.39865,-0.32689 -1.19479,-1.46234 -1.19479,-1.46234"/></g></g><g stroke="#000000" stroke-width="0.25" stroke-linecap="round"><path d="M220.43357,202.03705l3.73685,-2.89473l-0.84211,1.42105l4.52631,-0.63158l-2.05263,1.05263l3.89473,2.10526l-1.05263,0.42106l0.78947,3.57894l-0.57894,-0.42105l-0.84211,6l-0.31579,-1.36842l-3,4.15789l-0.36842,-0.78947l-2.68421,1.21053l-1.52632,-1.42105" fill="url(#color-5)"/><g><path d="M229.23421,206.94862l-1.93043,-1.62029l-1.29846,0.57225l-0.6087,-1.86957l-2.17391,1.30435l1.34783,-4.91304l3.52174,-0.56522l-2.17391,1.08696l3.82609,2.13043l-1.04348,0.47826z" fill="#000000"/><path d="M224.2227,201.94401c0,0 1.78815,0.23667 2.52174,1c0.73359,0.76333 1.91304,3.43478 1.91304,3.43478l-1.35318,-0.9667l-1.25552,0.44496l-0.69565,-1.82609l-2,1.26087z" fill="url(#color-6)"/></g><g><path d="M227.18447,211.61604l1.52632,1.94737l2.21052,0.10527l4.36843,0.57894l1.05263,0.52632l-1.36842,5.05263l-0.94737,-0.63158l-2.94737,-0.47369l-5.47368,-1.73684l-3.47368,-0.63158l2.52632,-1.15789" fill="url(#color-7)"/><path d="M235.02656,214.19499c0,0 1.95924,0.6345 2.40362,1.01109c0.56258,0.47676 1.70165,1.98891 1.70165,1.98891l-3.15789,-0.94737" fill="#5a5a5a"/><path d="M234.50019,215.19499c0,0 2.02285,0.77089 2.45561,1.18005c0.51707,0.48886 1.49176,1.97785 1.49176,1.97785l-2.84211,-1.05263" fill="#5b5b5b"/><path d="M234.07921,216.24762c0,0 2.10886,0.93559 2.56459,1.38304c0.50426,0.49509 1.43541,1.88012 1.43541,1.88012l-3.26315,-1.36842" fill="#5b5b5b"/><path d="M233.92135,217.45815c0,0 1.95575,0.85229 2.34116,1.37473c0.40326,0.54664 1.02727,2.09895 1.02727,2.09895l-4.26316,-2.05263" fill="#5b5b5b"/></g></g><path d="M221.45202,204.47759l-1.65217,4.13043l-0.73913,-1.56522l-1.21739,1.43479l-0.39131,-2.30435" fill="#555555" stroke="#000000" stroke-width="0.25" stroke-linecap="round"/><g stroke="#000000" stroke-width="0.25" stroke-linecap="round"><path d="M224.71254,181.86176l0.09005,14.2826l-0.64733,-0.05885l0.73974,8.0324l-0.67719,-0.4807l0.83859,5.79299l-3.89824,0.24912l-0.37929,-5.95576l0.49157,0.43647l-0.18156,-7.83937l0.39462,0.32096l-0.24813,-8.84301" data-paper-data="{&quot;index&quot;:null}" fill="url(#color-8)"/><path d="M224.57357,209.16492c0,0 1.4664,0.46986 1.73684,1.26316c0.27044,0.7933 0.5376,2.21438 0.10527,3.52631c-0.43234,1.31193 -1.34035,-0.02105 -1.34035,-0.02105l-3.71228,-0.30526c0,0 -0.97268,1.32716 -1.15789,0.8c-0.18522,-0.52716 -0.48756,-2.03535 -0.26315,-3.31579c0.2244,-1.28044 1.15789,-1.78947 1.15789,-1.78947" data-paper-data="{&quot;index&quot;:null}" fill="url(#color-9)"/><path d="M222.09985,212.95439l-1.05263,4.21053c0,0 -0.74209,-1.75673 -0.94737,-2.94737c-0.20529,-1.19064 -0.30527,-2.15789 -0.30527,-2.15789" data-paper-data="{&quot;index&quot;:null}" fill="url(#color-10)"/><path d="M223.57008,213.01755l-1.31228,4.56842c0,0 -0.68215,-1.83952 -0.79193,-2.83603c-0.11773,-1.06862 -0.29228,-2.70782 -0.29228,-2.70782" data-paper-data="{&quot;index&quot;:null}" fill="url(#color-11)"/><path d="M225.349,212.67974c0,0 0.10095,1.22979 -0.15492,2.21916c-0.26971,1.04291 -1.35736,3.21339 -1.35736,3.21339l-0.87369,-5.55789" data-paper-data="{&quot;index&quot;:null}" fill="url(#color-12)"/><path d="M226.67883,212.25263c0,0 0.22571,0.518 0.1044,1.41717c-0.16392,1.2149 -0.99913,4.54774 -0.99913,4.54774l-0.78948,-5.6772" data-paper-data="{&quot;index&quot;:null}" fill="url(#color-13)"/></g><path d="M223.27607,186.30036l-1.66667,2l-0.2,-0.66667l-4.73333,2.2" fill="none" stroke="#000000" stroke-width="0.25" stroke-linecap="round"/><path d="M208.88674,191.99935l-0.69565,-4.26087l-0.52174,0.95652l0.30435,-6.26087" fill="none" stroke="#000000" stroke-width="0.25" stroke-linecap="round"/><g stroke="#000000" stroke-width="0.25" stroke-linecap="round"><path d="M216.93299,211.39213c0,0 -0.1977,1.79646 -0.875,3.125c-0.6773,1.32854 -1.4899,1.25631 -1.91667,1.125c-0.42677,-0.13131 -0.20353,-0.70656 -0.58333,-1.29167c-0.3798,-0.5851 -0.33333,-1.08333 -0.33333,-1.08333" fill="url(#color-14)"/><path d="M214.80799,211.39214c0,0 -0.07271,1.79645 -0.75,3.125c-0.67729,1.32855 -1.4899,1.25631 -1.91666,1.125c-0.42676,-0.13131 -0.32853,-0.70657 -0.70834,-1.29167c-0.37981,-0.5851 -0.45834,-2.08333 -0.45834,-2.08333" fill="url(#color-15)"/></g><g stroke="#000000" stroke-width="0.25" stroke-linecap="round"><path d="M213.58239,204.3037c0,0 1.04939,-0.94185 2,-0.91304c0.95061,0.02881 1.71449,0.19363 1.91304,1.26087c0.19856,1.06724 -0.51455,1.93321 -1.08695,2.52174c-0.5724,0.58852 -2,0.65217 -2,0.65217l-0.26087,2.82609" fill="url(#color-16)"/><path d="M215.54277,203.70731c0,0 1.1311,0.41766 1.41667,1.04167c0.28556,0.62401 -0.29167,1.41667 -0.29167,1.41667" fill="#555555"/></g><path d="M214.92735,202.78776l-1.56522,2.82609l-0.60869,-0.82609" fill="#525252" stroke="#000000" stroke-width="0.25" stroke-linecap="round"/><g stroke="#000000" stroke-linecap="round"><path d="M228.86866,162.25462c0,0 2.26126,2.92614 4.12338,4.48587c1.86212,1.55973 4.23377,2.51413 4.23377,2.51413c0,0 -2.90514,0.76383 -4.78571,0.64286c-1.88057,-0.12097 -7.42857,-1.42857 -7.42857,-1.42857" fill="#363636" stroke-width="0.375"/><path d="M237.17869,169.27691c0,0 -2.04006,0.66042 -3.625,0.625c-1.58494,-0.03541 -4,-0.70833 -4,-0.70833l1.5,-0.5l-2.20833,-2.125l3,0.79167l-0.125,-0.83333l2.04167,0.79167z" fill="#000000" stroke-width="0.25"/><path d="M231.72033,166.73526l4.16667,2.16667l-5.66667,0.16667l0.5,-0.29167l-1.95833,-2.25l2.875,0.66667z" fill="url(#color-17)" stroke-width="0.25"/></g><g stroke="#000000" stroke-linecap="round"><path d="M226.7972,153.96896c0,0 3.0833,-0.48364 4.93507,-1.13101c1.85177,-0.64737 3.85065,-1.94041 3.85065,-1.94041c0,0 -0.79282,5.28201 -2.71429,7.92857c-1.92147,2.64655 -4.85714,2.5 -4.85714,2.5" fill="#363636" stroke-width="0.375"/><path d="M235.55369,150.9436c0,0 -0.38024,2.40845 -0.73861,3.66991c-0.33442,1.17714 -1.51139,3.45509 -1.51139,3.45509l0.375,-3.45834l-0.875,-0.08333l0.75,-0.875l-2.41667,-0.45834z" fill="#000000" stroke-width="0.25"/><path d="M233.63701,153.56859l-1.08333,-0.29167l2.45833,-1.33333l-1.45833,4.29167v-1.58334l-0.83333,-0.08333z" fill="url(#color-18)" stroke-width="0.25"/></g><path d="M205.75722,159.33749c0,-6.51696 5.28304,-11.8 11.8,-11.8c6.51696,0 11.8,5.28304 11.8,11.8c0,6.51696 -5.28304,11.8 -11.8,11.8c-6.51696,0 -11.8,-5.28304 -11.8,-11.8z" fill="#363636" stroke="#000000" stroke-width="0.375" stroke-linecap="butt"/><g><path d="M229.33454,158.54234c0,0 -0.20833,1.40301 -0.31105,2.00122c-0.14194,0.82662 -0.59804,2.68059 -0.59804,2.68059c0,0 -1.49976,0.63119 -2.13271,0.65277c-0.69464,0.02368 -2.14002,-0.69822 -2.14002,-0.69822l1.45454,-4.04546c0,0 0.12187,-4.16864 1.72727,-4.45454c1.6054,-0.28589 2,3.86364 2,3.86364z" fill="url(#color-19)" stroke="#000000" stroke-width="0.375" stroke-linecap="round"/><path d="M228.88007,158.06506c-0.25,0 -0.25,-0.25 -0.25,-0.25v-0.0909c0.00075,-0.22273 -0.14311,-1.02249 -0.33866,-1.70456c-0.00074,0.00001 -0.00149,0.00001 -0.00224,0.00001c-0.09266,0 -0.17355,-0.05041 -0.21673,-0.1253l-0.13401,-0.22334l0.00681,-0.00409l-0.01957,-0.02007c-0.00501,-0.03576 -0.01514,-0.0648 -0.02971,-0.08785c-0.09194,-0.01627 -0.1798,-0.04315 -0.27017,-0.05827c-0.25139,0.05974 -0.60231,0.2843 -0.82495,0.42899l-0.01672,0.01672c-0.02947,0.02947 -0.06627,0.05162 -0.10743,0.06348c-0.01154,0.00728 -0.02212,0.01384 -0.03163,0.01957c0,0 -0.21437,0.12862 -0.34299,-0.08575c-0.12862,-0.21437 0.08575,-0.34299 0.08575,-0.34299c0.01504,-0.00898 0.03035,-0.0182 0.04591,-0.02762l0.09561,-0.15936l0.02889,0.01733c0.28744,-1.06496 0.87389,-0.97045 1.41428,-0.40629c0.16174,0.05197 0.30142,0.17532 0.40263,0.40223l0.12629,0.21048c0.02392,0.03834 0.03774,0.08362 0.03774,0.13215c0,0.01345 -0.00107,0.02665 -0.00311,0.03953c0.34538,0.61494 0.59239,1.35123 0.59402,1.91502v0.0909c0,0 0,0.25 -0.25,0.25z" fill="#000000" stroke="none" stroke-width="0.5" stroke-linecap="butt"/></g><g stroke="#000000" stroke-width="0.375" stroke-linecap="round"><path d="M233.65429,142.18317l1.78571,-0.28571l-2.71429,5.35714l1.71429,-0.28571l-2.71429,2.92857l1.85714,0.28571l-3.64286,2l1.92857,3.78571l-2.92857,-1.21429" fill="url(#color-20)"/><path d="M222.97252,149.01441l5.75325,-6.04545l5.85714,-4.57143l-0.21429,3.85714l-5.57143,13.64286" fill="#363636"/></g><g><path d="M211.88603,164.45046c0,0 -1.73881,-1.9757 -2.05556,-3.88889c-0.31676,-1.91319 -0.27918,-3.24271 0.66667,-4.5c0.94585,-1.25729 2.09396,-2.48225 3.72222,-2.11111c1.10517,0.25192 2.67893,2.0376 3.83334,3.83333c1.1544,1.79574 1.05555,2.77777 1.05555,2.77777l1.5,2.83334c0,0 -3.56015,1.37529 -5.11685,1.56368c-1.30671,0.15814 -3.60537,-0.50812 -3.60537,-0.50812z" fill="url(#color-21)" stroke="#000000" stroke-width="0.375" stroke-linecap="round"/><path d="M211.1264,155.59405c0.01327,-0.02202 0.02661,-0.04371 0.04001,-0.06504l0.02191,-0.06574l0.01668,0.00556c0.00236,-0.00361 0.00473,-0.00719 0.00709,-0.01078l0.00074,-0.04716c0.02234,-0.02324 0.05049,-0.04988 0.08372,-0.07933c-0.01402,-0.21439 0.25591,-0.41031 0.65102,-0.57937c0.0117,-0.01222 0.02346,-0.02428 0.03529,-0.03618l0.06727,-0.20182c0.03142,-0.10215 0.12654,-0.17641 0.239,-0.17641c0.04854,0 0.09385,0.01384 0.1322,0.03777c0.08673,-0.04828 0.17638,-0.08735 0.26898,-0.11579c0.21387,-0.14767 0.43294,-0.22853 0.65303,-0.21847c0.0782,-0.04321 0.15511,-0.08487 0.23039,-0.12492l0.21961,-0.13177c0.03834,-0.02392 0.08363,-0.03774 0.13215,-0.03774c0.05359,0 0.10324,0.01686 0.14394,0.04556c0.13457,0.004 0.24242,0.11435 0.24242,0.24989c0,0.01079 -0.00068,0.02142 -0.00201,0.03185c0.0766,0.0115 0.14572,0.03003 0.20481,0.05684c0.10265,-0.01183 0.17988,-0.01773 0.22361,-0.01728l0.03306,0.02745l0.00594,-0.01785l0.26726,0.08909c0.10216,0.03141 0.17641,0.12654 0.17641,0.23899c0,0.13807 -0.11193,0.25 -0.25,0.25c-0.01348,0 -0.02671,-0.00107 -0.03961,-0.00312l-0.31393,-0.04485l0.00652,-0.04561c-0.21781,0.00411 -0.41208,0.01836 -0.58794,0.04145c0.18558,0.28295 -0.22575,0.47192 -0.52732,0.65286c-0.58346,0.34376 -1.39834,0.96057 -2.02732,1.62657c-0.13222,0.25671 -0.26855,0.51679 -0.40086,0.77517c-0.04639,0.11294 -0.09096,0.22686 -0.13423,0.34164c-0.05312,0.29839 -0.09436,0.59424 -0.14051,0.86995c-0.06214,0.21663 -0.10534,0.43923 -0.13286,0.6629l-0.00286,0.00469l0.00207,0.00035l-0.04478,0.26867c-0.0179,0.12051 -0.12179,0.21295 -0.24727,0.21295c-0.014,0 -0.02774,-0.00115 -0.04112,-0.00336c0.0667,0.74028 0.14667,1.48265 0.51564,1.87642c0.07407,0.01868 0.18457,0.07438 0.18457,0.24059c0,0.25 -0.25,0.25 -0.25,0.25l-0.22223,-0.07323c-0.17435,-0.18729 -0.42437,-0.83976 -0.59457,-1.53419c-0.05384,-0.02065 -0.09873,-0.0594 -0.12721,-0.1088l-0.13401,-0.22335l0.02518,-0.01511l-0.05174,-0.04678c-0.00498,-0.21811 0.00454,-0.43799 0.03978,-0.65329c0.00726,-0.0436 0.01681,-0.09587 0.02854,-0.15582c-0.00996,-0.27786 0.01351,-0.56828 0.01351,-0.75762v-0.27273c0,-0.07224 0.03065,-0.13733 0.07964,-0.18297c-0.17906,-1.05537 0.42675,-2.01367 1.28036,-2.81076z" fill="#000000" stroke="none" stroke-width="0.5" stroke-linecap="butt"/></g><path d="M211.11534,149.48194l4.75325,-4.94156l-0.71429,1.57143l5.35714,-1.21429l-1.07143,0.78571l5.28571,0.85714l-1.14286,1l2.85714,3.32467" fill="none" stroke="#000000" stroke-width="0.375" stroke-linecap="round"/><path d="M214.31189,164.97419c-0.15038,0 -0.29044,-0.04426 -0.40783,-0.12047l-0.01143,-0.00063l-0.01464,-0.01708c-0.10432,-0.07412 -0.18887,-0.17425 -0.24418,-0.29094l-0.08365,-0.16728l-0.01171,-0.05269l-0.02898,-0.04554l-0.06743,-0.20228l-0.14497,-0.2537l-0.0118,-0.04196l-0.02638,-0.0347l-0.27273,-0.63636l-0.00967,-0.05995l-0.02858,-0.05359l-0.08788,-0.35151l-0.08748,-0.30617l-0.00195,-0.05846l-0.02112,-0.05455l-0.03984,-0.3187l-0.07992,-0.3197v-0.05114l-0.01781,-0.04794l-0.04546,-0.40909l0.00103,-0.00764l-0.00254,-0.00728l-0.04546,-0.5l0.00045,-0.00286l-0.00094,-0.00275l-0.04522,-0.54265l-0.0452,-0.4972l0.00533,-0.03426l-0.00841,-0.03364v-0.36755l-0.04086,-0.36781l0.00565,-0.04185l-0.01024,-0.04097v-1.13636l0.01149,-0.04598l-0.0057,-0.04704l0.04546,-0.36364l0.02111,-0.05456l0.00195,-0.05846l0.07684,-0.26893l0.03821,-0.26747l0.03395,-0.08332l0.01216,-0.08916l0.27272,-0.68182l0.02229,-0.03086l-0.00197,-0.02862l0.11014,-0.12115l0.09586,-0.13273l0.02009,-0.00281l0.00287,-0.05183l0.07317,-0.06271l0.05174,-0.0813l0.05624,-0.01125l0.04951,-0.04244l0.09518,-0.09518l0.10338,-0.06203l0.09154,-0.07846l0.04914,-0.02457l0.09751,-0.06501l0.02842,-0.01015l0.01261,-0.02206l0.1639,-0.04097l0.1591,-0.05682l0.02273,0.01136l0.02928,-0.00732h0.59091l0.08957,0.0224h0.00677l0.02447,-0.01224l0.00418,-0.00731l0.0209,-0.00523l0.01869,-0.00934l0.03825,-0.0085l0.00738,-0.00443l0.00563,0.00154l0.11696,-0.02599l0.16718,-0.0418h0.0209l0.02103,-0.00468l0.00353,0.00235l0.00353,-0.00235l0.02102,0.00468h0.0209l0.16718,0.0418l0.16823,0.03739l0.01869,0.00934l0.0209,0.00523l0.00418,0.00731l0.04714,0.02356l0.13518,0.11587l0.05739,0.0141l0.04005,0.06943l0.06086,0.05217l0.00328,0.059l0.08897,0.15422l0.1418,0.49629l0.22436,0.35255l0.0292,0.08759l0.04957,0.07789l0.18182,0.54545l0.00069,0.00894l0.00463,0.00767l0.18182,0.5909l0.0011,0.02052l0.00967,0.01814l0.13636,0.54546v0.00701l0.00319,0.00624l0.13636,0.59091l-0.00043,0.02365l0.00943,0.0217l0.09,0.54001l0.17873,0.98305l0.13391,0.62491l-0.0006,0.01765l0.00704,0.0162l0.09091,0.54546l-0.002,0.02503l0.00849,0.02364l0.04002,0.40023l0.07767,0.31067v0.09233l0.02239,0.08957v0.32209l0.04087,0.36781l-0.00104,0.00764l0.00254,0.00728l0.04546,0.5l-0.00533,0.03426l0.00841,0.03364v1.04545l-0.01811,0.07247l0.00355,0.07462l-0.03089,0.15445v0.06209l-0.09375,0.375l-0.07584,0.04334l-0.01713,0.08565l-0.32611,0.20752l-0.13636,0.04546l-0.06106,0.00469l-0.02788,0.02495l-0.03459,-0.00266v0.30696l-0.09375,0.375l-0.02572,0.01469l-0.00164,0.02957l-0.29349,0.25156l-0.04714,0.02357l-0.00418,0.00731l-0.0209,0.00523l-0.01869,0.00934l-0.16823,0.03739l-0.16718,0.0418h-0.0209l-0.02102,0.00467l-0.00353,-0.00235l-0.00353,0.00235l-0.02103,-0.00467h-0.0209l-0.16718,-0.0418l-0.16823,-0.03739l-0.01869,-0.00934l-0.0209,-0.00523l-0.00418,-0.00731l-0.13805,-0.06902l-0.09154,-0.07846l-0.10338,-0.06203l-0.09091,-0.09091l-0.03843,-0.06406l-0.05527,-0.05024l-0.18182,-0.27273l-0.01141,-0.03194l-0.02298,-0.02495l-0.27273,-0.5l-0.00606,-0.02329l-0.01516,-0.01869l-0.1917,-0.41078c-0.11606,0.07368 -0.25375,0.11634 -0.4014,0.11634z" fill="#242424" stroke="none" stroke-width="0.5" stroke-linecap="butt"/><path d="M226.49313,161.73716c-0.36327,0.57773 0.53674,2.73696 -0.96158,2.73696c-0.94798,0 -3.56316,-8.55695 -1.02696,-9.82504c0.13028,-0.10921 0.29821,-0.17496 0.48151,-0.17496c0.23583,0 0.44624,0.10885 0.58373,0.27905c2.05156,1.29089 2.13677,5.05414 0.9233,6.984z" fill="#242424" stroke="none" stroke-width="0.5" stroke-linecap="butt"/><g stroke="#000000" stroke-linecap="round"><g><path d="M227.15277,153.86055c0,0 -0.54131,-0.35987 -1.27273,2.40909c-0.73143,2.76896 -1.27273,7.22727 -1.27273,7.22727l-3.63636,0.68182c0,0 -2.41628,-5.89711 -4.86364,-9.09091c-2.44736,-3.19381 -4.22727,-2.77273 -4.22727,-2.77273" fill="#363636" stroke-width="0.375"/><g stroke-width="0.25"><path d="M219.15277,158.76964l0.68182,-2.5909l0.22727,0.63636l2.36364,-1.77272l0.77273,1.95454l1,-1.13636l1.27273,3.36364l0.18182,3.63636l-5.54546,1z" fill="url(#color-22)"/><path d="M219.66186,157.29684c0,0 1.04308,1.23896 1.12727,2.2c0.08419,0.96104 -0.64538,3.30051 -0.64538,3.30051l-0.94024,-3.1646l-0.0911,-1.08708z" fill="#000000"/><path d="M225.47091,162.99685c0,0 -1.1651,-2.33446 -1.40909,-3.95455c-0.24399,-1.62009 0.53922,-1.82146 0.53922,-1.82146l0.58294,1.13862z" fill="#000000"/></g></g><g fill="none" stroke-width="0.25"><path d="M223.83454,162.95141l-1.72727,-2.68182l0.81818,0.4091l-0.95454,-2.22727l1.18182,0.09091l-1.63637,-2.81818l0.54546,-0.5l-2,-1.36364l0.13637,-2.04546"/><path d="M219.14276,152.90036l1.66667,-0.13333"/><path d="M222.14275,153.76702l-2.66667,0.6"/></g></g><path d="M229.33454,158.54234c0,0 -0.20833,1.40301 -0.31105,2.00122c-0.14194,0.82662 -0.59804,2.68059 -0.59804,2.68059c0,0 -1.49976,0.63119 -2.13271,0.65277c-0.69464,0.02368 -2.14002,-0.69822 -2.14002,-0.69822l1.45454,-4.04546c0,0 0.12187,-4.16864 1.72727,-4.45454c1.6054,-0.28589 2,3.86364 2,3.86364z" fill="none" stroke="#000000" stroke-width="0.375" stroke-linecap="round"/><g stroke="#000000" stroke-width="0.25" stroke-linecap="round"><path d="M216.0164,144.40602l-0.63636,1.68182l5.22727,-1.18182l-1.22727,0.81818l5.13636,0.90909l-0.95454,0.77273l0.72728,0.95454v0.86364l1.31818,1.18181l-3.72727,0.27273l-1.40909,1.5l-0.86364,-1.13637l-3.77273,-0.77273l1.54546,-1l-5.18182,-0.68182z" fill="#000000"/><path d="M212.38007,148.54237c0,0 1.69393,-1.05429 5.90909,-1c1.05629,0.0136 3.12833,0.30501 4.25753,0.84028c1.64946,0.78188 2.83338,1.9779 2.83338,1.9779l-3.5,0.36364l-1.4204,1.4164c0,0 -0.07776,-0.93224 -0.92372,-1.11352c-1.30787,-0.28026 -3.74678,-0.80288 -3.74678,-0.80288l1.42394,-0.98444z" fill="url(#color-23)"/></g><path d="M211.88603,164.45047c0,0 -1.73881,-1.9757 -2.05556,-3.88889c-0.31676,-1.91319 -0.27918,-3.24271 0.66667,-4.5c0.94585,-1.25729 2.09396,-2.48225 3.72222,-2.11111c1.10517,0.25192 2.67893,2.0376 3.83334,3.83333c1.1544,1.79574 1.05555,2.77777 1.05555,2.77777l1.5,2.83334c0,0 -3.56015,1.37529 -5.11685,1.56368c-1.30671,0.15814 -3.60537,-0.50812 -3.60537,-0.50812z" fill="none" stroke="#000000" stroke-width="0.375" stroke-linecap="round"/><g stroke="#000000" stroke-linecap="round"><path d="M206.99204,164.56636c0,0 -5.75459,-2.47615 -7.62338,-4.74025c-2.15072,-2.60567 -3.92857,-8.71429 -3.92857,-8.71429c0,0 4.23274,1.71823 6.24007,2.17351c1.79593,0.40733 5.24045,0.43038 5.24045,0.43038" fill="#363636" stroke-width="0.375"/><path d="M198.40848,152.23764l4.2381,3.28571l-2.2381,0.09524l0.28572,2.7619l-1.57143,-1.33333l-1,1.14286l-2.61904,-7.23809z" fill="#000000" stroke-width="0.25"/><path d="M199.31323,156.95188l-0.57143,0.38095l-1.90476,-4.47619l4.95238,2.61905l-1.38095,0.04762l0.2381,2.85714z" fill="url(#color-24)" stroke-width="0.25"/></g><g stroke="#000000" stroke-width="0.375" stroke-linecap="round"><path d="M205.84291,156.64397l-5.66363,-11.04544l-4.73637,-8.21818l5.7681,1.3353l7.0319,4.5647l4.5,6.3" fill="#363636"/><path d="M196.8492,138.36505l8.21429,4.92857l-1.92857,-0.21429l7.28571,7.35714l-2.35714,0.14286l1.64286,0.35714l-5.78571,1.35714l1,0.71429l-2.42857,0.28571l-3.28571,-3.57143l2.21429,-0.21429l-4.35714,-5.07143l1.85714,-0.92857l-3.71429,-5.35714z" fill="url(#color-25)"/><path d="M204.51803,150.68324l-5.28571,-3.71429l3.28571,0.21429l-4.57143,-5.35714l3.92857,0.85714" fill="none"/></g><g stroke="#000000" stroke-width="0.25" stroke-linecap="round"><path d="M223.26774,169.93956l0.82353,3.52941l-0.58823,-0.52941l-0.35295,3.29411l-1.11765,-1.17647l-0.41177,3.2353l-4.23529,-4.2353l-0.29412,0.94118l-2.2353,-2.05882l-0.7647,0.05882l-1.41177,-2.58824z" fill="#000000"/><g><path d="M216.6795,169.64545l3.11764,0.11765l-0.05882,3.17647l-0.23529,3.05882l-2.11765,-1.94118l-0.35294,0.76471l-0.41177,-0.29412l0.29412,-1.17647l-0.11765,-2.76471z" fill="url(#color-26)"/><path d="M219.68684,172.04432c0,0 -0.70065,0.38223 -1.33333,0.28572c-0.63268,-0.09651 -1.47619,-0.71429 -1.47619,-0.71429" fill="none"/><path d="M219.73443,170.7586c0,0 -0.74039,0.29549 -1.38095,0.19048c-0.64056,-0.10501 -1.52381,-0.66667 -1.52381,-0.66667" fill="none"/><path d="M219.63916,173.61575c0,0 -0.75893,0.33041 -1.33333,0.2381c-0.5744,-0.09232 -1.33334,-0.66667 -1.33334,-0.66667" fill="none"/></g></g><g stroke="#000000" stroke-linecap="round"><path d="M212.51152,169.96896c0,0 -3.86083,2.9393 -6.78571,3.35714c-2.92489,0.41784 -10.21429,-0.92857 -10.21429,-0.92857c0,0 4.82077,-2.2964 7.53782,-4.39076c2.71705,-2.09436 4.07907,-4.56378 4.07907,-4.56378" fill="#363636" stroke-width="0.375"/><path d="M200.21801,169.90431l4.09524,0.33333l-1.19048,1.33333l1.66667,0.61905l1.42857,-0.80953l-0.47619,1.95238l-10.09524,-0.90476z" fill="#000000" stroke-width="0.25"/><path d="M206.0275,172.28526l-2.19048,0.80953l-6.42857,-1.19047l4.95238,-1.57143l1.09524,-0.19047l0.80952,0.09524l-1.04762,1.33333l1.42857,0.61905l1.47619,-0.71428z" fill="url(#color-27)" stroke-width="0.25"/></g><g stroke="#000000" stroke-width="0.25" stroke-linecap="round"><path d="M206.93187,214.45816l-1.52632,1.42105l-2.68421,-1.21053l-0.36842,0.78947l-3,-4.15789l-0.31579,1.36842l-0.8421,-6l-0.57895,0.42105l0.78947,-3.57894l-1.05263,-0.42106l3.89473,-2.10526l-2.05263,-1.05263l4.52631,0.63158l-0.84211,-1.42105l3.73685,2.89473" fill="url(#color-28)"/><path d="M198.38554,203.6141l-1.25,-0.5l4.08333,-2.08333l-2.25,-1.125l4.91667,0.66667l-1.41667,5.16667l-0.76507,-1.14415l-3.93333,2.2z" fill="#000000"/><path d="M199.09387,205.94746c0,0 0.94052,-1.80339 1.875,-2.66667c0.93448,-0.86328 2.5,-1.375 2.5,-1.375l-1,3.83333l-0.83333,-1.16667z" fill="url(#color-29)"/><g><path d="M202.39151,215.195l2.52632,1.15789l-3.47368,0.63158l-5.47368,1.73684l-2.94737,0.47368l-0.94737,0.63158l-1.36842,-5.05263l1.05263,-0.52632l4.36842,-0.57895l2.21053,-0.10526l1.52632,-1.94737" fill="url(#color-30)"/><path d="M191.07573,216.24762l-3.15789,0.94737c0,0 1.13907,-1.51215 1.70164,-1.9889c0.44438,-0.37659 2.40362,-1.0111 2.40362,-1.0111" fill="#5a5a5a"/><path d="M191.44415,217.30025l-2.84211,1.05263c0,0 0.97469,-1.48899 1.49175,-1.97785c0.43276,-0.40916 2.45561,-1.18004 2.45561,-1.18004" fill="#5b5b5b"/><path d="M192.23363,218.14236l-3.26316,1.36842c0,0 0.93115,-1.38503 1.4354,-1.88012c0.45574,-0.44745 2.5646,-1.38304 2.5646,-1.38304" fill="#5b5b5b"/><path d="M194.0231,218.8792l-4.26316,2.05263c0,0 0.62401,-1.55231 1.02727,-2.09895c0.38541,-0.52244 2.34115,-1.37473 2.34115,-1.37473" fill="#5b5b5b"/></g></g><g stroke="#000000" stroke-width="0.25" stroke-linecap="round"><path d="M214.24446,184.79861l-1.06315,4.79298l0.59999,-0.84211l-1.45965,8.03158l0.6772,-0.59649l-1.05614,8.31228l0.58245,-0.23158l-0.78245,5.83508l-4.26666,0.06667l0.89122,-6.16141l-0.62456,0.74385l1.81403,-10.31579l-0.58596,0.55789l1.62808,-9.21053l-0.91579,0.5193l0.92631,-5.33333" fill="url(#color-31)"/><path d="M211.32733,209.7965c0,0 0.93349,0.50903 1.15789,1.78947c0.22441,1.28044 -0.07793,2.78863 -0.26315,3.31579c-0.18521,0.52716 -1.22456,-0.46667 -1.22456,-0.46667c0,0 -1.37972,-0.28883 -2.02413,-0.26988c-0.52307,0.01538 -1.68815,0.04181 -1.68815,0.04181c0,0 -0.84134,1.53298 -1.27368,0.22105c-0.43233,-1.31193 -0.16517,-2.73301 0.10527,-3.52631c0.27044,-0.7933 1.73684,-1.26316 1.73684,-1.26316" fill="url(#color-32)"/><path d="M212.49925,212.93335c0,0 0.03335,0.56725 -0.17193,1.75789c-0.20528,1.19064 -0.94737,2.94737 -0.94737,2.94737l-1.05263,-4.21053" fill="url(#color-33)"/><path d="M210.85361,212.91579c0,0 0.22545,1.2392 0.10772,2.30782c-0.10979,0.99651 -0.79193,2.83604 -0.79193,2.83604l-1.57895,-4.83509" fill="url(#color-34)"/><path d="M209.13083,213.02808c0,0 -0.11856,0.46211 -0.1558,1.12861c-0.06252,1.11891 -0.38454,4.42928 -0.38454,4.42928c0,0 -1.08765,-2.17048 -1.35736,-3.21339c-0.25587,-0.98936 -0.28825,-2.29188 -0.28825,-2.29188" fill="url(#color-35)"/><path d="M207.03261,212.94737l-0.38947,5.74386c0,0 -0.83522,-3.33284 -0.99913,-4.54774c-0.12132,-0.89917 0.17106,-2.08384 0.17106,-2.08384" fill="url(#color-36)"/></g><g stroke="#000000" stroke-width="0.25" stroke-linecap="round"><path d="M223.87613,182.50035l0.26667,1.46667l2.26667,2.73333c0,0 -1.90874,0.16354 -3.06667,-0.2c-1.15793,-0.36354 -2.53334,-1.26667 -2.53334,-1.26667c0,0 -1.91842,1.03768 -3.73333,1.19999c-1.81491,0.16231 -4.6,-0.8 -4.6,-0.8c0,0 2.13174,-0.90143 2.6,-1.26667c0.46826,-0.36524 0.73333,-1.33333 0.73333,-1.33333c0,0 -1.3895,-2.03624 -2.73333,-3c-1.34384,-0.96376 -3.86667,-1.73333 -3.86667,-1.73333l1.86667,-0.66667c0,0 5.07797,-0.40072 6.8,0c1.72203,0.40073 3.8,2.46667 3.8,2.46667l2.4,-1.93333l3.33333,-0.4z" fill="url(#color-37)"/><path d="M221.74276,180.10036c0,0 0.13491,1.64535 -0.06667,2.66667c-0.20157,1.02132 -0.93333,2.4 -0.93333,2.4" fill="none"/><path d="M222.87613,180.63369l-3.06667,0.13333" fill="none"/><path d="M222.60946,182.96703l-2.46667,0.13333" fill="none"/><path d="M220.1428,184.36702l1.6,0.53333" fill="none"/></g><g stroke="#000000" stroke-linecap="round"><path d="M227.18053,163.76306c0,0 1.66607,-0.83574 2.21981,-0.98614c0.57074,-0.15502 1.15519,0.06948 1.15519,0.06948c0,0 -0.61809,1.46499 -1.16836,2.09205c-0.63264,0.72092 -2.41497,1.99128 -2.41497,1.99128l3.65476,1.10714c0,0 -2.16445,1.7048 -3.00307,1.52048c-0.83862,-0.18432 -3.51393,0.0375 -3.51393,0.0375" fill="url(#color-38)" stroke-width="0.375"/><path d="M225.85912,168.088c-1.52176,1.48553 -2.96392,2.26927 -5.02857,2.70476c-2.06465,0.43549 -3.83587,0.30031 -5.40001,0.05078c-1.56414,-0.24954 -3.45833,-1.19048 -3.45833,-1.19048c0,0 -1.2301,0.60723 -2.29166,0.37501c-1.06156,-0.23221 -2.90278,-3.04167 -2.90278,-3.04167l4.20833,0.22223l-3.82197,-2.93181c0,0 2.31346,-1.27333 2.86977,-0.9987c0.63514,0.31355 2.34109,1.37496 2.34109,1.37496l2.83334,-0.38889l4.83333,-1.05555l6.54762,-0.26984l1.04762,0.26191l1.19365,-0.21746c0,0 -1.44966,3.61922 -2.97142,5.10475z" fill="url(#color-39)" stroke-width="0.375"/><path d="M216.68769,164.69753l3.57143,-1.52381c0,0 2.34177,-1.53281 4.04762,-1.71429c1.70584,-0.18147 2.66667,1 2.66667,1l1.04762,1.09524" fill="url(#color-40)" stroke-width="0.375"/><path d="M219.6679,163.11498l-0.93103,3l-1.37931,-2.51724" fill="#000000" stroke-width="0.25"/><g><path d="M220.79438,162.88985c0,0 2.67619,-1.68117 4,-1.62069c1.32381,0.06047 2.7931,1.93103 2.7931,1.93103l-3.58621,2.86207l-3.2069,-3.17241z" fill="#1e1e1e" stroke-width="0.375"/><path d="M220.83454,162.86048c0,0 1.78607,-0.19512 2.54546,0.59091c0.75939,0.78603 0.40909,2.27273 0.40909,2.27273z" fill="#000000" stroke-width="0.25"/><path d="M225.33454,165.04238c0,0 -0.19959,-1.19357 0.27273,-1.63637c0.47232,-0.4428 1.90909,-0.40909 1.90909,-0.40909z" fill="#000000" stroke-width="0.25"/></g><path d="M228.54035,162.99063l-0.80556,2.13889l-0.27778,-1.91667" fill="#000000" stroke-width="0.25"/><path d="M212.29179,167.94857l-0.41176,-0.58824l1.17647,-0.23529l-0.70588,-2.05882l2,1.23529" fill="none" stroke-width="0.25"/></g><g stroke="#000000" stroke-width="0.25" stroke-linecap="round"><path d="M223.90147,166.18515c0,0 0.02435,0.57597 -0.11625,0.89552c-0.16193,0.36802 -0.80042,1.18782 -0.80042,1.18782" fill="none"/><path d="M225.56811,167.96292c0,0 -0.92815,0.44937 -1.38889,0.5c-0.46074,0.05063 -0.20464,-0.27412 -1.13889,-0.22222c-0.93425,0.05191 -1.18995,0.56072 -2.36111,0.41667c-1.17117,-0.14404 -3.66667,-1.22222 -3.66667,-1.22222" fill="none"/><path d="M219.23515,168.26869l-1.35,1.85l-0.35,-2.5z" fill="url(#color-41)"/><path d="M225.48515,168.01869l-0.25,1.6l-0.65,-1.25z" fill="url(#color-42)"/></g></g></g></g></svg>