<svg version="1.1" xmlns="http://www.w3.org/2000/svg" xmlns:xlink="http://www.w3.org/1999/xlink" width="60.33949" height="85.51916" viewBox="0,0,60.33949,85.51916"><defs><radialGradient cx="283.36873" cy="201.23299" r="7.63636" gradientUnits="userSpaceOnUse" id="color-1"><stop offset="0" stop-color="#360000"/><stop offset="1" stop-color="#910000"/></radialGradient><linearGradient x1="271.84487" y1="168.64729" x2="271.84487" y2="215.55829" gradientUnits="userSpaceOnUse" id="color-2"><stop offset="0" stop-color="#360000"/><stop offset="1" stop-color="#910000"/></linearGradient><linearGradient x1="260.90312" y1="199.14235" x2="260.90312" y2="215.87919" gradientUnits="userSpaceOnUse" id="color-3"><stop offset="0" stop-color="#360000"/><stop offset="1" stop-color="#910000"/></linearGradient><linearGradient x1="256.57329" y1="211.61604" x2="256.57329" y2="219.82657" gradientUnits="userSpaceOnUse" id="color-4"><stop offset="0" stop-color="#360000"/><stop offset="1" stop-color="#910000"/></linearGradient><linearGradient x1="248.7312" y1="214.19499" x2="248.7312" y2="217.19499" gradientUnits="userSpaceOnUse" id="color-5"><stop offset="0" stop-color="#360000"/><stop offset="1" stop-color="#910000"/></linearGradient><linearGradient x1="249.33647" y1="215.19499" x2="249.33647" y2="218.35289" gradientUnits="userSpaceOnUse" id="color-6"><stop offset="0" stop-color="#360000"/><stop offset="1" stop-color="#910000"/></linearGradient><linearGradient x1="249.73117" y1="216.24762" x2="249.73117" y2="219.51078" gradientUnits="userSpaceOnUse" id="color-7"><stop offset="0" stop-color="#360000"/><stop offset="1" stop-color="#910000"/></linearGradient><linearGradient x1="250.65227" y1="217.45815" x2="250.65227" y2="220.93183" gradientUnits="userSpaceOnUse" id="color-8"><stop offset="0" stop-color="#360000"/><stop offset="1" stop-color="#910000"/></linearGradient><linearGradient x1="266.35839" y1="204.47762" x2="266.35839" y2="208.60805" gradientUnits="userSpaceOnUse" id="color-9"><stop offset="0" stop-color="#360000"/><stop offset="1" stop-color="#910000"/></linearGradient><linearGradient x1="262.89279" y1="181.86176" x2="262.89279" y2="209.67932" gradientUnits="userSpaceOnUse" id="color-10"><stop offset="0" stop-color="#360000"/><stop offset="1" stop-color="#910000"/></linearGradient><linearGradient x1="262.55735" y1="209.16492" x2="262.55735" y2="214.55186" gradientUnits="userSpaceOnUse" id="color-11"><stop offset="0" stop-color="#360000"/><stop offset="1" stop-color="#910000"/></linearGradient><linearGradient x1="264.86316" y1="212.05966" x2="264.86316" y2="217.16492" gradientUnits="userSpaceOnUse" id="color-12"><stop offset="0" stop-color="#360000"/><stop offset="1" stop-color="#910000"/></linearGradient><linearGradient x1="263.43862" y1="212.04212" x2="263.43862" y2="217.58597" gradientUnits="userSpaceOnUse" id="color-13"><stop offset="0" stop-color="#360000"/><stop offset="1" stop-color="#910000"/></linearGradient><linearGradient x1="261.64457" y1="212.5544" x2="261.64457" y2="218.11229" gradientUnits="userSpaceOnUse" id="color-14"><stop offset="0" stop-color="#360000"/><stop offset="1" stop-color="#910000"/></linearGradient><linearGradient x1="259.90361" y1="212.25263" x2="259.90361" y2="218.21754" gradientUnits="userSpaceOnUse" id="color-15"><stop offset="0" stop-color="#360000"/><stop offset="1" stop-color="#910000"/></linearGradient><linearGradient x1="271.97005" y1="202.78779" x2="271.97005" y2="205.61388" gradientUnits="userSpaceOnUse" id="color-16"><stop offset="0" stop-color="#360000"/><stop offset="1" stop-color="#910000"/></linearGradient><linearGradient x1="254.69171" y1="162.25464" x2="254.69171" y2="169.89991" gradientUnits="userSpaceOnUse" id="color-17"><stop offset="0" stop-color="#360000"/><stop offset="1" stop-color="#910000"/></linearGradient><linearGradient x1="254.62031" y1="150.89754" x2="254.62031" y2="161.32755" gradientUnits="userSpaceOnUse" id="color-18"><stop offset="0" stop-color="#360000"/><stop offset="1" stop-color="#910000"/></linearGradient><linearGradient x1="268.25318" y1="147.53751" x2="268.25318" y2="171.13751" gradientUnits="userSpaceOnUse" id="color-19"><stop offset="0" stop-color="#360000"/><stop offset="1" stop-color="#910000"/></linearGradient><linearGradient x1="259.06673" y1="154.6646" x2="259.06673" y2="163.87752" gradientUnits="userSpaceOnUse" id="color-20"><stop offset="0" stop-color="#360000"/><stop offset="1" stop-color="#910000"/></linearGradient><linearGradient x1="256.87039" y1="148.9332" x2="250.37039" y2="148.9332" gradientUnits="userSpaceOnUse" id="color-21"><stop offset="0" stop-color="#ffce4b"/><stop offset="1" stop-color="#807351"/></linearGradient><linearGradient x1="257.03265" y1="138.39753" x2="257.03265" y2="155.89753" gradientUnits="userSpaceOnUse" id="color-22"><stop offset="0" stop-color="#360000"/><stop offset="1" stop-color="#910000"/></linearGradient><linearGradient x1="270.68036" y1="153.88303" x2="270.68036" y2="164.98285" gradientUnits="userSpaceOnUse" id="color-23"><stop offset="0" stop-color="#360000"/><stop offset="1" stop-color="#910000"/></linearGradient><linearGradient x1="267.88983" y1="144.54038" x2="267.88983" y2="152.88208" gradientUnits="userSpaceOnUse" id="color-24"><stop offset="0" stop-color="#360000"/><stop offset="1" stop-color="#910000"/></linearGradient><linearGradient x1="266.29401" y1="152.29674" x2="266.29401" y2="164.17872" gradientUnits="userSpaceOnUse" id="color-25"><stop offset="0" stop-color="#360000"/><stop offset="1" stop-color="#910000"/></linearGradient><linearGradient x1="284.59433" y1="151.11182" x2="284.59433" y2="164.56635" gradientUnits="userSpaceOnUse" id="color-26"><stop offset="0" stop-color="#360000"/><stop offset="1" stop-color="#910000"/></linearGradient><linearGradient x1="281.71749" y1="137.38037" x2="281.71749" y2="156.64399" gradientUnits="userSpaceOnUse" id="color-27"><stop offset="0" stop-color="#360000"/><stop offset="1" stop-color="#910000"/></linearGradient><linearGradient x1="290.60405" y1="145.72216" x2="275.38982" y2="145.72216" gradientUnits="userSpaceOnUse" id="color-28"><stop offset="0" stop-color="#807351"/><stop offset="1" stop-color="#ffce4b"/></linearGradient><linearGradient x1="282.15602" y1="163.44296" x2="282.15602" y2="171.63075" gradientUnits="userSpaceOnUse" id="color-29"><stop offset="0" stop-color="#360000"/><stop offset="1" stop-color="#910000"/></linearGradient><linearGradient x1="283.66801" y1="199.14237" x2="283.66801" y2="215.87921" gradientUnits="userSpaceOnUse" id="color-30"><stop offset="0" stop-color="#360000"/><stop offset="1" stop-color="#910000"/></linearGradient><linearGradient x1="287.99785" y1="211.61604" x2="287.99785" y2="219.82657" gradientUnits="userSpaceOnUse" id="color-31"><stop offset="0" stop-color="#360000"/><stop offset="1" stop-color="#910000"/></linearGradient><linearGradient x1="295.83994" y1="214.19499" x2="295.83994" y2="217.19499" gradientUnits="userSpaceOnUse" id="color-32"><stop offset="0" stop-color="#360000"/><stop offset="1" stop-color="#910000"/></linearGradient><linearGradient x1="295.23469" y1="215.19499" x2="295.23469" y2="218.35288" gradientUnits="userSpaceOnUse" id="color-33"><stop offset="0" stop-color="#360000"/><stop offset="1" stop-color="#910000"/></linearGradient><linearGradient x1="294.83994" y1="216.24762" x2="294.83994" y2="219.51078" gradientUnits="userSpaceOnUse" id="color-34"><stop offset="0" stop-color="#360000"/><stop offset="1" stop-color="#910000"/></linearGradient><linearGradient x1="293.91891" y1="217.45815" x2="293.91891" y2="220.93183" gradientUnits="userSpaceOnUse" id="color-35"><stop offset="0" stop-color="#360000"/><stop offset="1" stop-color="#910000"/></linearGradient><linearGradient x1="258.29904" y1="162.72238" x2="258.29904" y2="169.67976" gradientUnits="userSpaceOnUse" id="color-36"><stop offset="0" stop-color="#ffce4b"/><stop offset="1" stop-color="#807351"/></linearGradient><linearGradient x1="267.8634" y1="162.93878" x2="267.8634" y2="171.07599" gradientUnits="userSpaceOnUse" id="color-37"><stop offset="0" stop-color="#ffce4b"/><stop offset="1" stop-color="#807351"/></linearGradient><linearGradient x1="263.45601" y1="161.44046" x2="263.45601" y2="164.69752" gradientUnits="userSpaceOnUse" id="color-38"><stop offset="0" stop-color="#ffce4b"/><stop offset="1" stop-color="#e0b74c"/></linearGradient><linearGradient x1="267.42528" y1="167.61869" x2="267.42528" y2="170.11869" gradientUnits="userSpaceOnUse" id="color-39"><stop offset="0" stop-color="#ffffff"/><stop offset="1" stop-color="#ff0000"/></linearGradient><linearGradient x1="260.77525" y1="168.01869" x2="260.77525" y2="169.61869" gradientUnits="userSpaceOnUse" id="color-40"><stop offset="0" stop-color="#ffffff"/><stop offset="1" stop-color="#ff0000"/></linearGradient><linearGradient x1="271.13257" y1="211.93846" x2="269.23179" y2="211.93846" gradientUnits="userSpaceOnUse" id="color-41"><stop offset="0" stop-color="#1e0f0f"/><stop offset="1" stop-color="#000000"/></linearGradient><linearGradient x1="276.68271" y1="181.07533" x2="273.13221" y2="210.05869" gradientUnits="userSpaceOnUse" id="color-42"><stop offset="0" stop-color="#360000"/><stop offset="1" stop-color="#910000"/></linearGradient><linearGradient x1="274.2213" y1="209.6386" x2="274.2213" y2="215.05593" gradientUnits="userSpaceOnUse" id="color-43"><stop offset="0" stop-color="#360000"/><stop offset="1" stop-color="#910000"/></linearGradient><linearGradient x1="276.46141" y1="212.93335" x2="276.46141" y2="217.63861" gradientUnits="userSpaceOnUse" id="color-44"><stop offset="0" stop-color="#360000"/><stop offset="1" stop-color="#910000"/></linearGradient><linearGradient x1="274.84006" y1="212.91579" x2="274.84006" y2="218.05965" gradientUnits="userSpaceOnUse" id="color-45"><stop offset="0" stop-color="#360000"/><stop offset="1" stop-color="#910000"/></linearGradient><linearGradient x1="273.08502" y1="213.02808" x2="273.08502" y2="218.58597" gradientUnits="userSpaceOnUse" id="color-46"><stop offset="0" stop-color="#360000"/><stop offset="1" stop-color="#910000"/></linearGradient><linearGradient x1="271.37068" y1="212.05965" x2="271.37068" y2="218.69123" gradientUnits="userSpaceOnUse" id="color-47"><stop offset="0" stop-color="#360000"/><stop offset="1" stop-color="#910000"/></linearGradient><radialGradient cx="267.83968" cy="181.68698" r="9.1" gradientUnits="userSpaceOnUse" id="color-48"><stop offset="0" stop-color="#ffce4b"/><stop offset="1" stop-color="#e0b74c"/></radialGradient></defs><g transform="translate(-244.23546,-137.10047)"><g data-paper-data="{&quot;isPaintingLayer&quot;:true}" fill-rule="nonzero" stroke-linejoin="miter" stroke-miterlimit="10" stroke-dasharray="" stroke-dashoffset="0" style="mix-blend-mode: normal"><path d="" fill="#1e1e1e" stroke="#000000" stroke-width="0.25" stroke-linecap="round"/><path d="" fill="#000000" stroke="#000000" stroke-width="0.25" stroke-linecap="round"/><g><path d="M276.80095,197.77276l2.38636,-3.10227v1.3125h6.68182l-1.67045,1.67045l5.60796,2.86364l-1.78977,0.35795v7.15909l-1.3125,-2.14773l-5.25,3.22159l-0.23864,-2.38636l-5.60796,-0.59659l1.78977,-1.90909l-2.86364,-4.41477l2.02841,0.83523z" fill="url(#color-1)" stroke="#000000" stroke-width="0.25" stroke-linecap="round"/><path d="M244.23546,215.93184c0,-3.69358 13.50748,-6.68782 30.16975,-6.68782c16.66227,0 30.16974,2.99423 30.16974,6.68781c0,3.69357 -13.50746,6.68781 -30.16974,6.68781c-16.66228,0 -30.16975,-2.99424 -30.16975,-6.68782z" fill-opacity="0.59173" fill="#ffffff" stroke="none" stroke-width="0" stroke-linecap="butt"/><g stroke="#000000" stroke-width="0.25" stroke-linecap="round"><path d="M262.71678,204.76003l-0.04912,-2.63509l-0.36841,0.78596l0.33684,-6.72632l-0.37894,0.62105l-0.7193,-12.0807l-0.80351,0.84211l0.86667,-11.06667l-0.58596,1.03158l1.85263,-5.63158c0,0 2.9118,-1.28211 4.39838,-1.25257c1.8063,0.03589 5.66829,1.45258 5.66829,1.45258l1.05965,4.04562l0.1614,-1.05616l2.69122,7.61754l0.27017,-0.77543l2.30877,8.83158l0.23158,-1.22807l2.63158,13.08772l0.66666,-0.78948l-2.38948,13.2807l0.90878,-0.29825c0,0 -2.02257,2.32373 -4.74036,2.68421c-2.71779,0.36048 -4.79783,-1.07443 -6.91762,-1.19378c-1.6846,-0.09485 -4.79817,0.53413 -4.79817,0.53413" fill="url(#color-2)"/><path d="M265.85759,190.16509l-1.25,2.5l1.125,0.875l-1.25,2" fill="none"/><path d="M272.60759,196.41509l0.25,-2.25l-1,-1.375l1.25,-1.875" fill="none"/><path d="M265.48259,205.41509l0.5,-1.25l-1.25,-1.625l1.375,-2" fill="none"/><path d="M272.10759,206.41509l0.125,-1.375l-1.125,-1.75l1.5,-2" fill="none"/></g><g><path d="M265.69264,214.45814l-1.52632,1.42105l-2.68421,-1.21053l-0.36842,0.78947l-3,-4.15789l-0.31579,1.36842l0.15789,-6l-1.57894,0.42105l0.78947,-3.57894l-1.05263,-0.42106l3.89473,-2.10526l-2.05263,-1.05263l4.52631,0.63158l-0.84211,-1.42105l3.73685,2.89473" fill="url(#color-3)" stroke="#000000" stroke-width="0.25" stroke-linecap="round"/><g fill="none" stroke="none" stroke-width="1" stroke-linecap="butt" font-family="sans-serif" font-weight="normal" font-size="12" text-anchor="start"/><g stroke="#000000" stroke-width="0.25" stroke-linecap="round"><path d="M261.15224,215.19498l2.52632,1.15789l-3.47368,0.63158l-5.47368,1.73684l-2.94737,0.47369l-0.94737,0.63158l-1.36842,-5.05263l1.05263,-0.52632l4.36843,-0.57894l2.21052,-0.10527l1.52632,-1.94737" fill="url(#color-4)"/><path d="M249.83644,216.24762l-3.15789,0.94737c0,0 1.13907,-1.51215 1.70165,-1.98891c0.44438,-0.37659 2.40362,-1.01109 2.40362,-1.01109" fill="url(#color-5)"/><path d="M250.20491,217.30026l-2.84211,1.05263c0,0 0.97469,-1.48899 1.49176,-1.97785c0.43276,-0.40916 2.45561,-1.18005 2.45561,-1.18005" fill="url(#color-6)"/><path d="M250.99432,218.14236l-3.26315,1.36842c0,0 0.93115,-1.38503 1.43541,-1.88012c0.45573,-0.44745 2.56459,-1.38304 2.56459,-1.38304" fill="url(#color-7)"/><path d="M252.78379,218.8792l-4.26316,2.05263c0,0 0.62401,-1.55231 1.02727,-2.09895c0.38541,-0.52244 2.34116,-1.37473 2.34116,-1.37473" fill="url(#color-8)"/></g></g><path d="M268.35839,206.17327l-0.39131,2.30435l-1.21739,-1.43479l-0.73913,1.56522l-1.65217,-4.13043" fill="url(#color-9)" stroke="#000000" stroke-width="0.25" stroke-linecap="round"/><g stroke="#000000" stroke-width="0.25" stroke-linecap="round"><path d="M264.57508,187.79861l-0.24813,8.84301l0.39462,-0.32096l-0.18156,7.83937l0.49157,-0.43647l-0.37929,5.95576l-3.89824,-0.24912l0.83859,-5.79299l-0.67719,0.4807l0.73974,-8.0324l-0.64733,0.05885l0.09005,-14.2826" data-paper-data="{&quot;index&quot;:null}" fill="url(#color-10)"/><path d="M264.71049,209.32282c0,0 0.93349,0.50903 1.15789,1.78947c0.22441,1.28044 -0.07793,2.78863 -0.26315,3.31579c-0.18521,0.52716 -1.15789,-0.8 -1.15789,-0.8l-3.71228,0.30526c0,0 -0.90801,1.33298 -1.34035,0.02105c-0.43233,-1.31193 -0.16517,-2.73301 0.10527,-3.52631c0.27044,-0.7933 1.73684,-1.26316 1.73684,-1.26316" data-paper-data="{&quot;index&quot;:null}" fill="url(#color-11)"/><path d="M266.01583,212.05966c0,0 -0.09998,0.96725 -0.30527,2.15789c-0.20528,1.19064 -0.94737,2.94737 -0.94737,2.94737l-1.05263,-4.21053" data-paper-data="{&quot;index&quot;:null}" fill="url(#color-12)"/><path d="M264.63686,212.04212c0,0 -0.17455,1.6392 -0.29228,2.70782c-0.10978,0.99651 -0.79193,2.83603 -0.79193,2.83603l-1.31228,-4.56842" data-paper-data="{&quot;index&quot;:null}" fill="url(#color-13)"/><path d="M262.84736,212.5544l-0.87369,5.55789c0,0 -1.08765,-2.17048 -1.35736,-3.21339c-0.25587,-0.98937 -0.15492,-2.21916 -0.15492,-2.21916" data-paper-data="{&quot;index&quot;:null}" fill="url(#color-14)"/><path d="M260.81579,212.54034l-0.78948,5.6772c0,0 -0.83521,-3.33284 -0.99913,-4.54774c-0.12131,-0.89917 0.1044,-1.41717 0.1044,-1.41717" data-paper-data="{&quot;index&quot;:null}" fill="url(#color-15)"/></g><path d="M269.13429,189.83368l-4.73333,-2.2l-0.2,0.66667l-1.66667,-2" fill="none" stroke="#000000" stroke-width="0.25" stroke-linecap="round"/><path d="M277.83666,182.43416l0.30435,6.26087l-0.52174,-0.95652l-0.69565,4.26087" fill="none" stroke="#000000" stroke-width="0.25" stroke-linecap="round"/><path d="M273.05695,204.78779l-0.60869,0.82609l-1.56522,-2.82609" fill="url(#color-16)" stroke="#000000" stroke-width="0.25" stroke-linecap="round"/><path d="M260.79888,168.46894c0,0 -5.548,1.3076 -7.42857,1.42857c-1.88057,0.12097 -4.78571,-4.35715 -4.78571,-4.35715c0,0 2.37165,1.75988 4.23377,0.20015c1.86212,-1.55973 4.12338,-3.48587 4.12338,-3.48587" fill="url(#color-17)" stroke="#000000" stroke-width="0.375" stroke-linecap="round"/><path d="M257.79892,161.3261c0,0 -2.93567,0.14655 -4.85714,-2.5c-1.92147,-2.64656 -2.71429,-7.92857 -2.71429,-7.92857c0,0 1.99888,1.29304 3.85065,1.94041c1.85177,0.64737 4.93507,1.13101 4.93507,1.13101" fill="url(#color-18)" stroke="#000000" stroke-width="0.375" stroke-linecap="round"/><path d="M268.25317,171.13752c-6.51696,0 -11.8,-5.28304 -11.8,-11.8c0,-6.51696 5.28304,-11.8 11.8,-11.8c6.51696,0 11.8,5.28304 11.8,11.8c0,6.51696 -5.28304,11.8 -11.8,11.8z" fill="url(#color-19)" stroke="#000000" stroke-width="0.375" stroke-linecap="butt"/><path d="M256.47583,158.54236c0,0 0.3946,-4.14953 2,-3.86364c1.6054,0.2859 1.72727,4.45454 1.72727,4.45454l1.45454,4.04546c0,0 -1.44538,0.7219 -2.14002,0.69822c-0.63295,-0.02158 -2.13271,-0.65277 -2.13271,-0.65277c0,0 -0.4561,-1.85397 -0.59804,-2.68059c-0.10272,-0.59821 -0.31105,-2.00122 -0.31105,-2.00122z" fill="url(#color-20)" stroke="#000000" stroke-width="0.375" stroke-linecap="round"/><path d="M256.38333,159.70001c0,0 1.26506,-0.43743 2,-0.16667c0.73494,0.27077 2.75,1.91667 2.75,1.91667" fill="none" stroke="#000000" stroke-width="0.375" stroke-linecap="round"/><g stroke="#000000" stroke-width="0.375" stroke-linecap="round"><path d="M256.87037,154.75462l-2.92857,1.21429l1.92857,-3.78571l-3.64286,-2l1.85714,-0.28571l-2.71429,-2.92857l1.71429,0.28571l-2.71429,-5.35714l1.78571,0.28571" fill="url(#color-21)"/><path d="M257.01322,155.89753l-5.57143,-13.64286l-0.21429,-3.85714l5.85714,4.57143l5.75325,6.04545" fill="url(#color-22)"/></g><path d="M270.31901,164.95858c-1.5567,-0.18839 -5.11685,-1.56368 -5.11685,-1.56368l1.5,-2.83334c0,0 -0.09885,-0.98203 1.05555,-2.77777c1.15441,-1.79573 2.72817,-3.58141 3.83334,-3.83333c1.62826,-0.37114 2.77637,0.85382 3.72222,2.11111c0.94585,1.25729 0.98343,2.58681 0.66667,4.5c-0.31675,1.91319 -2.05556,3.88889 -2.05556,3.88889c0,0 -2.29866,0.66626 -3.60537,0.50812z" fill="url(#color-23)" stroke="#000000" stroke-width="0.375" stroke-linecap="round"/><path d="M265.55,162.78334c0,0 2.99982,-2.50462 5.33333,-3.08333c2.33351,-0.57871 5.08333,0.5 5.08333,0.5" fill="none" stroke="#000000" stroke-width="0.375" stroke-linecap="round"/><path d="M266.60412,152.38449c0,0 -2.61635,0.61123 -3.01076,0.4788c-0.55669,-0.18692 -2.19546,-1.31249 -2.19546,-1.31249l0.8296,-4.01045l-1.14286,-1l5.28571,-0.85714l-1.07143,-0.78571l5.35714,1.21429l-0.71429,-1.57143l4.75325,4.94156" fill="url(#color-24)" stroke="#000000" stroke-width="0.375" stroke-linecap="round"/><path d="M269.13489,158.72848l0.01064,-0.07982l-0.01064,0.16497z" fill="#242424" stroke="none" stroke-width="0.5" stroke-linecap="butt"/><g><g><path d="M273.93037,152.31509c0,0 -1.77991,-0.42108 -4.22727,2.77273c-2.44736,3.1938 -4.86364,9.09091 -4.86364,9.09091l-3.63636,-0.68182c0,0 -0.5413,-4.45831 -1.27273,-7.22727c-0.73142,-2.76896 -1.27273,-2.40909 -1.27273,-2.40909" fill="url(#color-25)" stroke="#000000" stroke-width="0.375" stroke-linecap="round"/><g fill="none" stroke="none" stroke-width="1" stroke-linecap="butt" font-family="sans-serif" font-weight="normal" font-size="12" text-anchor="start"/></g><g fill="none" stroke="#000000" stroke-width="0.25" stroke-linecap="round"><path d="M265.61217,151.81507l0.13637,2.04546l-2,1.36364l0.54546,0.5l-1.63637,2.81818l1.18182,-0.09091l-0.95454,2.22727l0.81818,-0.4091l-1.72727,2.68182"/><path d="M266.66762,152.90034l-1.66667,-0.13333"/><path d="M263.6676,153.76701l2.66667,0.6"/></g></g><path d="M256.47583,158.54236c0,0 0.3946,-4.14953 2,-3.86364c1.6054,0.2859 1.72727,4.45454 1.72727,4.45454l1.45454,4.04546c0,0 -1.44538,0.7219 -2.14002,0.69822c-0.63295,-0.02158 -2.13271,-0.65277 -2.13271,-0.65277c0,0 -0.4561,-1.85397 -0.59804,-2.68059c-0.10272,-0.59821 -0.31105,-2.00122 -0.31105,-2.00122z" fill="none" stroke="#000000" stroke-width="0.375" stroke-linecap="round"/><path d="M270.31901,164.95858c-1.5567,-0.18839 -5.11685,-1.56368 -5.11685,-1.56368l1.5,-2.83334c0,0 -0.09885,-0.98203 1.05555,-2.77777c1.15441,-1.79573 2.72817,-3.58141 3.83334,-3.83333c1.62826,-0.37114 2.77637,0.85382 3.72222,2.11111c0.94585,1.25729 0.98343,2.58681 0.66667,4.5c-0.31675,1.91319 -2.05556,3.88889 -2.05556,3.88889c0,0 -2.29866,0.66626 -3.60537,0.50812z" fill="none" stroke="#000000" stroke-width="0.375" stroke-linecap="round"/><path d="M278.8898,153.7157c0,0 3.44452,-0.02305 5.24045,-0.43038c2.00733,-0.45528 6.24007,-2.17351 6.24007,-2.17351c0,0 -1.77785,6.10862 -3.92857,8.71429c-1.86879,2.2641 -7.62338,4.74025 -7.62338,4.74025" fill="url(#color-26)" stroke="#000000" stroke-width="0.375" stroke-linecap="round"/><g stroke="#000000" stroke-width="0.375" stroke-linecap="round"><path d="M273.06748,149.58038l4.5,-6.3l7.0319,-4.5647l5.7681,-1.3353l-4.73637,8.21818l-5.66363,11.04544" fill="url(#color-27)"/><path d="M290.60406,138.15074l-3.71429,5.35714l1.85714,0.92857l-4.35714,5.07143l2.21429,0.21429l-3.28571,3.57143l-2.42857,-0.28571l1,-0.71429l-5.78571,-1.35714l1.64286,-0.35714l-2.35714,-0.14286l7.28571,-7.35714l-1.92857,0.21429l8.21429,-4.92857z" fill="url(#color-28)"/><path d="M283.93525,142.68324l3.92857,-0.85714l-4.57143,5.35714l3.28571,-0.21429l-5.28571,3.71429" fill="none"/></g><path d="M278.68198,163.44296c0,0 1.79059,0.61228 4.50764,2.70664c2.71705,2.09436 7.82353,-0.75209 7.82353,-0.75209c0,0 -8.00368,6.63212 -10.92857,6.21428c-2.92488,-0.41784 -6.78571,-1.64285 -6.78571,-1.64285" fill="url(#color-29)" stroke="#000000" stroke-width="0.375" stroke-linecap="round"/><g stroke="#000000" stroke-width="0.25" stroke-linecap="round"><path d="M279.19434,202.0371l3.73685,-2.89473l-0.84211,1.42105l4.52631,-0.63158l-2.05263,1.05263l3.89473,2.10526l-1.05263,0.42106l0.78947,3.57894l-1.43609,-0.42105l0.01504,6l-0.31579,-1.36842l-3,4.15789l-0.36842,-0.78947l-2.68421,1.21053l-1.52632,-1.42105" fill="url(#color-30)"/><g><path d="M285.94521,211.61604l1.52632,1.94737l2.21053,0.10526l4.36842,0.57895l1.05263,0.52632l-1.36842,5.05263l-0.94737,-0.63158l-2.94737,-0.47368l-5.47368,-1.73684l-3.47368,-0.63158l2.52632,-1.15789" fill="url(#color-31)"/><path d="M293.78732,214.19499c0,0 1.95924,0.63451 2.40362,1.0111c0.56257,0.47675 1.70164,1.9889 1.70164,1.9889l-3.15789,-0.94737" fill="url(#color-32)"/><path d="M293.26102,215.19499c0,0 2.02285,0.77088 2.45561,1.18004c0.51706,0.48886 1.49175,1.97785 1.49175,1.97785l-2.84211,-1.05263" fill="url(#color-33)"/><path d="M292.83994,216.24762c0,0 2.10886,0.93559 2.5646,1.38304c0.50425,0.49509 1.4354,1.88012 1.4354,1.88012l-3.26316,-1.36842" fill="url(#color-34)"/><path d="M292.68206,217.45815c0,0 1.95574,0.85229 2.34115,1.37473c0.40326,0.54664 1.02727,2.09895 1.02727,2.09895l-4.26316,-2.05263" fill="url(#color-35)"/></g></g><g stroke="#000000" stroke-linecap="round"><path d="M261.34325,169.02345c0,0 -1.93689,0.23284 -2.65678,0.39107c-0.83862,0.18432 -2.93164,0.26523 -2.93164,0.26523c0,0 0.9831,-1.43181 1.5565,-1.98287c0.47895,-0.46029 1.52683,-0.76713 1.52683,-0.76713c0,0 -1.78233,-1.27036 -2.41497,-1.99128c-0.55027,-0.62706 -1.16836,-2.09205 -1.16836,-2.09205c0,0 0.58445,-0.2245 1.15519,-0.06948c0.55374,0.1504 2.21981,0.98614 2.21981,0.98614" fill="url(#color-36)" stroke-width="0.375"/><path d="M259.95126,168.08799c-1.52176,-1.48553 -2.97142,-5.10475 -2.97142,-5.10475l1.19365,0.21746l1.04762,-0.26191l6.54762,0.26984l4.83333,1.05555l2.83334,0.38889l4.78229,-1.44769c0,0 -0.72123,1.91502 -1.27576,2.56921c-0.57579,0.67927 -2.11764,1.43403 -2.11764,1.43403c0,0 1.79901,0.51145 2.48782,1.03685c0.60884,0.46441 1.43479,1.95521 1.43479,1.95521l-4.90872,-0.54763c0,0 -1.89419,0.94094 -3.45833,1.19048c-1.56414,0.24953 -3.33536,0.38471 -5.40001,-0.05078c-2.06465,-0.43549 -3.50681,-1.21923 -5.02857,-2.70476z" fill="url(#color-37)" stroke-width="0.375"/><path d="M257.78938,163.55467l1.04762,-1.09524c0,0 0.96083,-1.18147 2.66667,-1c1.70585,0.18148 4.04762,1.71429 4.04762,1.71429l3.57143,1.52381" fill="url(#color-38)" stroke-width="0.375"/><g><path d="M265.01604,162.88986l-3.2069,3.17241l-3.58621,-2.86207c0,0 1.46929,-1.87056 2.7931,-1.93103c1.32381,-0.06048 4,1.62069 4,1.62069z" fill="#1e1e1e" stroke-width="0.375"/><path d="M262.02127,165.72415c0,0 -0.3503,-1.4867 0.40909,-2.27273c0.75939,-0.78603 2.54546,-0.59091 2.54546,-0.59091z" fill="#000000" stroke-width="0.25"/><path d="M258.294,162.99691c0,0 1.43677,-0.03371 1.90909,0.40909c0.47232,0.4428 0.27273,1.63637 0.27273,1.63637z" fill="#000000" stroke-width="0.25"/></g><path d="M271.45977,166.30151l2,-1.23529l-0.70588,2.05882l1.17647,0.23529l-0.41176,0.58824" fill="none" stroke-width="0.25"/><path d="M269.39418,167.14903l-2.64286,-1.35714l2.42857,-0.07143" fill="none" stroke-width="0.25"/></g><g stroke="#000000" stroke-width="0.25" stroke-linecap="round"><path d="M262.82561,168.26849c0,0 -0.63849,-0.8198 -0.80042,-1.18782c-0.1406,-0.31955 -0.11625,-0.89552 -0.11625,-0.89552" fill="none"/><path d="M268.79784,167.43514c0,0 -2.4955,1.07818 -3.66667,1.22222c-1.17116,0.14405 -1.42686,-0.36476 -2.36111,-0.41667c-0.93425,-0.0519 -0.67815,0.27285 -1.13889,0.22222c-0.46074,-0.05063 -1.38889,-0.5 -1.38889,-0.5" fill="none"/><path d="M268.27526,167.61869l-0.35,2.5l-1.35,-1.85z" fill="url(#color-39)"/><path d="M261.22526,168.36869l-0.65,1.25l-0.25,-1.6z" fill="url(#color-40)"/></g><path d="M269.35989,209.48391l0.13636,1.81818l0.22727,-0.18182l0.13637,2.40909l0.22727,-0.22727l0.72728,1.18182c0,0 -0.23953,-0.05163 -0.45611,-0.07817c-0.22476,-0.02754 -0.4143,0.09762 -0.4143,0.09762l-0.34194,-1.21977l-0.17226,0.18452l0.05731,-2.41994l-0.2553,0.13975l0.18028,-1.81436z" fill="url(#color-41)" stroke="#000000" stroke-width="0.25" stroke-linecap="round"/><g fill="none" stroke="#000000" stroke-width="0.25" stroke-linecap="round"><path d="M278.53703,158.5776c0,0 -0.70621,0.61705 -1.12166,0.83107c-0.36323,0.18712 -1.23549,0.38322 -1.23549,0.38322"/><path d="M277.32273,155.86332c0,0 0.11682,1.12352 -0.08571,1.52857c-0.17411,0.34823 -1.05714,0.75714 -1.05714,0.75714"/><path d="M266.82274,155.36332c0,0 0.68807,-0.00189 0.9614,0.21202c0.27429,0.21466 0.68146,1.07369 0.68146,1.07369"/><path d="M265.89421,157.29188c0,0 0.69314,0.01049 1.04333,0.04801c0.31206,0.03344 0.95667,0.16628 0.95667,0.16628"/></g><g fill="none" stroke="#000000" stroke-width="0.25" stroke-linecap="round"><path d="M260.17992,157.93475c0,0 0.57946,-0.6654 0.87898,-0.84012c0.26852,-0.15664 0.83531,-0.15988 0.83531,-0.15988"/><path d="M260.17991,156.79189c0,0 0.13853,-0.8728 0.30081,-1.10997c0.14539,-0.21249 0.62776,-0.24717 0.62776,-0.24717"/><path d="M256.60845,157.72045c0,0 -0.45302,0.0022 -0.66396,-0.19633c-0.19204,-0.18075 -0.55033,-0.94653 -0.55033,-0.94653"/><path d="M256.39418,158.86332c0,0 -0.31026,0.12024 -0.47825,0.03065c-0.18709,-0.09978 -0.59318,-0.60208 -0.59318,-0.60208"/></g><g stroke="#000000" stroke-width="0.25" stroke-linecap="round"><path d="M276.93168,181.10582l0.27094,5.40639l-0.84585,-0.6268l0.49607,9.34015l-0.51378,-0.625l0.54625,10.45982l-0.52948,-0.81427l0.13543,6.22406l-4.2269,-0.58497l-0.06714,-5.88692l0.54997,0.30068l-0.03759,-8.37902l0.59965,0.67441l-0.47224,-8.14947l0.49314,0.90882l-0.47247,-4.88669" data-paper-data="{&quot;index&quot;:null}" fill="url(#color-42)"/><path d="M276.37446,209.7965c0,0 0.93349,0.50903 1.15789,1.78947c0.22441,1.28044 -0.07793,2.78863 -0.26315,3.31579c-0.18521,0.52716 -1.22456,-0.46667 -1.22456,-0.46667c0,0 -1.37972,-0.28883 -2.02413,-0.26988c-0.52307,0.01538 -1.68815,0.04181 -1.68815,0.04181c0,0 -0.84134,1.53298 -1.27368,0.22105c-0.43233,-1.31193 -0.16517,-2.73301 0.10527,-3.52631c0.27044,-0.7933 1.73684,-1.26316 1.73684,-1.26316" fill="url(#color-43)"/><path d="M277.54637,212.93335c0,0 0.03335,0.56725 -0.17193,1.75789c-0.20528,1.19064 -0.94737,2.94737 -0.94737,2.94737l-1.05263,-4.21053" fill="url(#color-44)"/><path d="M275.90078,212.91579c0,0 0.22545,1.2392 0.10772,2.30782c-0.10979,0.99651 -0.79193,2.83604 -0.79193,2.83604l-1.57895,-4.83509" fill="url(#color-45)"/><path d="M274.17798,213.02808c0,0 -0.11856,0.46211 -0.1558,1.12861c-0.06252,1.11891 -0.38454,4.42928 -0.38454,4.42928c0,0 -1.08765,-2.17048 -1.35736,-3.21339c-0.25587,-0.98936 -0.28825,-2.29188 -0.28825,-2.29188" fill="url(#color-46)"/><path d="M272.07972,212.94737l-0.38947,5.74386c0,0 -0.83522,-3.33284 -0.99913,-4.54774c-0.12132,-0.89917 0.17106,-2.08384 0.17106,-2.08384" fill="url(#color-47)"/></g><g stroke="#000000" stroke-width="0.25" stroke-linecap="round"><path d="M258.40095,177.76699l2.60605,1.30909l-0.26643,-2.11867l3.39371,1.51791c0,0 2.07797,-0.44094 3.8,-0.84167c0.6667,-0.15514 4.56523,-1.90207 4.56523,-1.90207c0,0 -0.80616,1.63613 -0.39601,1.75232c1.02795,0.29119 2.63078,0.14976 2.63078,0.14976l1.86667,0.66667c0,0 -2.52283,0.76957 -3.86667,1.73333c-1.34383,0.96376 -2.73333,3 -2.73333,3c0,0 0.26507,0.96809 0.73333,1.33333c0.46826,0.36524 2.6,1.26667 2.6,1.26667c0,0 -2.78509,0.96231 -4.6,0.8c-1.81491,-0.16231 -3.73333,-1.19999 -3.73333,-1.19999c0,0 -1.37541,0.90313 -2.53334,1.26667c-1.15793,0.36354 -3.06667,0.2 -3.06667,0.2l2.26667,-2.73333l0.26667,-1.46667z" fill="url(#color-48)"/><path d="M268.21896,184.51509l0.18182,-2l-0.63637,-0.81818l0.54546,-1.81818" fill="none"/><path d="M263.12805,180.06055l0.90909,1.27272l-1,2.27273" fill="none"/></g></g></g></g></svg>